<svg xmlns="http://www.w3.org/2000/svg" fill="none" viewBox="0 0 1600 1600" height="1600" width="1600">
<path fill="black" d="M450.405 1006.79L426.496 923L402.587 1006.79C398.925 1019.62 392.536 1030.79 383.888 1039.79C375.423 1048.6 364.788 1055.33 352.404 1059.55L274 1085.5L351.68 1111.17C364.345 1115.34 375.244 1122.18 383.893 1131.19C392.542 1140.21 398.921 1151.36 402.593 1164.2L426.501 1248L450.41 1164.2C454.066 1151.38 460.446 1140.22 469.109 1131.2C477.773 1122.18 488.659 1115.35 501.331 1111.16L579 1085.5L501.331 1059.82C488.66 1055.65 477.774 1048.81 469.109 1039.8C460.446 1030.78 454.065 1019.62 450.41 1006.79L450.405 1006.79Z"></path>
<path fill="black" d="M1284.22 661.38L1271 615L1257.78 661.38C1255.26 670.232 1250.83 677.964 1244.84 684.204C1238.85 690.453 1231.32 695.205 1222.59 698.079L1179 712.5L1222.59 726.921C1231.31 729.798 1238.85 734.541 1244.84 740.79C1250.83 747.032 1255.26 754.771 1257.78 763.629L1271 810L1284.22 763.629C1286.73 754.768 1291.17 747.038 1297.15 740.796C1303.15 734.538 1310.68 729.811 1319.41 726.921L1363 712.5L1319.41 698.079C1310.69 695.202 1303.15 690.453 1297.15 684.21C1291.16 677.953 1286.74 670.223 1284.22 661.377V661.38Z"></path>
<path fill="black" d="M1025.22 969.38L1012 923L998.782 969.38C996.257 978.232 991.834 985.964 985.839 992.204C979.854 998.453 972.321 1003.2 963.586 1006.08L920 1020.5L963.586 1034.92C972.306 1037.8 979.846 1042.54 985.839 1048.79C991.834 1055.03 996.257 1062.77 998.782 1071.63L1012 1118L1025.22 1071.63C1027.73 1062.77 1032.17 1055.04 1038.15 1048.8C1044.15 1042.54 1051.68 1037.81 1060.41 1034.92L1104 1020.5L1060.41 1006.08C1051.69 1003.2 1044.15 998.453 1038.15 992.21C1032.16 985.953 1027.74 978.223 1025.22 969.377V969.38Z"></path>
<path fill="black" d="M446.218 293.38L432.995 247L419.782 293.38C417.257 302.232 412.834 309.964 406.839 316.204C400.854 322.453 393.321 327.205 384.586 330.079L341 344.5L384.586 358.921C393.306 361.798 400.846 366.541 406.839 372.79C412.834 379.032 417.257 386.771 419.782 395.629L432.995 442L446.218 395.629C448.734 386.768 453.166 379.038 459.152 372.796C465.154 366.538 472.679 361.811 481.414 358.921L525 344.5L481.414 330.079C472.688 327.202 465.146 322.453 459.152 316.21C453.157 309.953 448.743 302.223 446.218 293.377V293.38Z"></path>
<mask fill="black" height="1008" width="876" y="296" x="362" maskUnits="userSpaceOnUse" id="path-5-outside-1_2530_185">
<rect height="1008" width="876" y="296" x="362" fill="white"></rect>
<path d="M382.142 662.02C383.001 662.839 384.024 663.535 384.965 664.353L384.924 664.313C385.211 664.599 385.538 664.845 385.865 665.09C424.447 696.734 518.51 693.868 647.393 689.775H647.557C673.456 688.957 700.705 688.097 728.772 687.524C730.327 698.986 731.472 707.173 731.595 708.197C750.456 868.589 714.779 1034.83 633.733 1164.27C603.824 1212.05 605.297 1253.6 637.865 1281.32V1281.27C650.712 1292.57 667.2 1298.88 684.303 1299C685.407 1299 686.553 1299 687.698 1298.92C712.002 1296.91 734.381 1284.79 749.315 1265.47C797.431 1206.81 834.335 1125.03 862.156 1015.39V1015.43C885.887 924.757 892.759 830.518 882.449 737.397C881.958 732.976 879.708 713.531 876.64 687.659C902.825 688.273 928.232 689.051 952.453 689.829C974.424 690.525 995.29 691.18 1015.17 691.671C1032.36 692.081 1048.81 692.367 1064.27 692.367C1139.1 692.367 1192.82 686.349 1217.82 662.156C1218.39 661.583 1218.76 660.969 1219.34 660.396C1219.46 660.273 1219.54 660.15 1219.62 660.027V659.945C1227.31 651.717 1231.86 641.033 1232.55 629.775C1232.67 629.366 1232.8 628.956 1232.88 628.547C1232.88 627.974 1232.8 627.442 1232.88 626.869C1232.96 626.295 1233 625.763 1233 625.19C1232.96 624.29 1232.88 623.389 1232.71 622.488C1230.67 559.159 1144.54 497.631 1086.77 456.489C1080.51 452.027 1074.66 447.852 1069.3 443.963C1055.3 433.769 1041.31 423.044 1027.24 412.319C951.463 354.19 873.066 294.143 778.232 301.636C722.793 306.016 683.311 334.385 641.616 364.391L640.02 365.537C621.486 378.882 601.929 392.146 583.068 405V405.041C543.749 430.79 505.781 458.586 469.407 488.306C439.376 513.768 385.001 559.945 369.537 613.853C368.227 616.924 367.45 620.158 367.164 623.474V623.801C367.164 624.251 367 624.743 367 625.193H367.041C366.673 639.03 372.155 652.416 382.138 662.036L382.142 662.02ZM385.702 616.785C388.688 611.341 392.534 606.388 397.034 602.13C418.841 601.639 581.683 599.224 712.076 631.891C496.669 626.446 412.466 643.885 392.531 649.085V649.125C386.557 642.862 383.284 634.512 383.407 625.874C384.021 622.803 384.716 619.774 385.698 616.786L385.702 616.785ZM945.609 493.483C900.604 510.348 854.616 550.425 840.747 563.156C838.087 562.01 835.387 561.068 832.646 560.25C839.601 532.986 850.648 506.951 865.377 483.003C892.299 485.131 919.056 488.611 945.609 493.483ZM1216.5 626.566C1216.46 633.525 1214.21 640.28 1210.12 645.929L882.804 631.724C940.615 619.566 1112.5 586.366 1201.73 601.308H1201.77C1208.69 607.039 1213.76 614.694 1216.38 623.291C1216.38 624.397 1216.54 625.461 1216.5 626.566ZM868.407 618.051L867.793 612.894C897.947 599.384 1047.82 534.296 1113.77 545.717H1113.85C1136.39 555.951 1158 568.15 1178.37 582.191C1074.16 574.782 908.909 609.128 868.4 618.051L868.407 618.051ZM865.788 595.823L865.256 591.443H865.297C864.438 584.033 860.879 577.156 855.314 572.162C877.121 552.717 943.444 497.535 987.426 502.488H987.386C987.631 502.488 987.836 502.488 988.04 502.448C1017.54 509.57 1046.59 518.536 1074.94 529.343C1001.5 537.53 898.602 581.21 865.784 595.824L865.788 595.823ZM816.65 557.015C807.117 555.828 797.502 555.582 787.888 556.237C782.651 556.565 777.372 557.179 772.259 558.038H772.299C765.712 531.553 755.115 506.254 740.877 483.043C761.048 481.405 781.668 480.505 802.617 480.505C817.755 480.505 832.606 480.914 847.172 481.733H847.131C833.302 505.189 823.033 530.57 816.65 557.015ZM722.584 484.721C737.927 508.342 749.342 534.296 756.298 561.559C747.91 563.851 739.973 567.454 732.731 572.284C712.683 543.588 671.278 512.312 648.12 496.061C672.014 491.271 696.891 487.423 722.584 484.721ZM626.031 500.727C640.392 510.307 700.127 551.366 721.275 584.647V584.688C719.925 587.308 719.066 590.133 718.739 593.039C668.005 564.671 578.893 538.962 534.989 527.296C564.774 516.612 595.174 507.769 626.026 500.769L626.031 500.727ZM508.565 537.407C530.372 542.851 663.633 576.992 719.634 612.647L720.084 617.028C607.698 588.126 470.68 585.384 417.114 585.506C445.672 566.061 476.358 549.933 508.561 537.406L508.565 537.407ZM412.212 661.687C447.439 655.137 535.239 643.921 711.176 648.301L645.796 673.395C540.846 676.752 454.854 679.331 412.216 661.687H412.212ZM695.221 671.963L725.211 660.418C725.702 664.103 726.152 667.705 726.602 671.185C716.005 671.389 705.49 671.635 695.221 671.921L695.221 671.963ZM846.239 1011.37C819.072 1118.57 783.231 1198.32 736.672 1255.11C724.643 1270.83 706.6 1280.77 686.879 1282.53C672.805 1283.11 659.017 1278.15 648.46 1268.78C615.647 1240.86 629.927 1201.23 647.601 1172.91C730.535 1040.36 767.11 870.262 747.803 706.071C747.721 705.416 741.379 660.222 737.615 627.022C736.02 613.267 734.874 601.519 734.833 595.993C734.71 585.226 759.464 574.501 788.963 572.618C792.032 572.413 795.141 572.331 798.251 572.331L798.292 572.29C812.162 571.717 825.99 574.46 838.633 580.314C838.797 580.395 838.961 580.559 839.124 580.6C844.28 583.015 847.962 587.764 849.026 593.372C849.108 594.15 866.087 738.499 866.169 739.311C876.275 830.432 869.524 922.663 846.244 1011.37L846.239 1011.37ZM873.898 664.435L914.034 672.172C901.187 671.803 888.013 671.476 874.757 671.148L873.898 664.435ZM1015.99 675.201L873.81 647.733L1188.49 661.364C1154.73 675.733 1093.08 677.002 1015.99 675.201ZM479.969 500.766C515.932 471.415 553.41 443.987 592.242 418.566C611.226 405.67 630.824 392.366 649.563 378.857L651.159 377.711C692.727 347.827 728.609 322.037 779.509 317.984C868.085 311.066 943.899 369.073 1017.22 425.192C1031.42 436.122 1045.53 446.847 1059.6 457.122C1065.01 461.052 1070.94 465.268 1077.2 469.771C1114.72 496.502 1169.95 535.965 1198.29 576.655C1139.79 529.906 1012.83 477.831 862.305 466.496H861.896C842.461 465.022 822.7 464.203 802.57 464.203C631.468 464.203 481.558 519.14 410.57 570.267L410.652 570.185C431.149 544.559 454.389 521.307 479.96 500.757L479.969 500.766Z"></path>
</mask>
<path fill="black" d="M382.142 662.02C383.001 662.839 384.024 663.535 384.965 664.353L384.924 664.313C385.211 664.599 385.538 664.845 385.865 665.09C424.447 696.734 518.51 693.868 647.393 689.775H647.557C673.456 688.957 700.705 688.097 728.772 687.524C730.327 698.986 731.472 707.173 731.595 708.197C750.456 868.589 714.779 1034.83 633.733 1164.27C603.824 1212.05 605.297 1253.6 637.865 1281.32V1281.27C650.712 1292.57 667.2 1298.88 684.303 1299C685.407 1299 686.553 1299 687.698 1298.92C712.002 1296.91 734.381 1284.79 749.315 1265.47C797.431 1206.81 834.335 1125.03 862.156 1015.39V1015.43C885.887 924.757 892.759 830.518 882.449 737.397C881.958 732.976 879.708 713.531 876.64 687.659C902.825 688.273 928.232 689.051 952.453 689.829C974.424 690.525 995.29 691.18 1015.17 691.671C1032.36 692.081 1048.81 692.367 1064.27 692.367C1139.1 692.367 1192.82 686.349 1217.82 662.156C1218.39 661.583 1218.76 660.969 1219.34 660.396C1219.46 660.273 1219.54 660.15 1219.62 660.027V659.945C1227.31 651.717 1231.86 641.033 1232.55 629.775C1232.67 629.366 1232.8 628.956 1232.88 628.547C1232.88 627.974 1232.8 627.442 1232.88 626.869C1232.96 626.295 1233 625.763 1233 625.19C1232.96 624.29 1232.88 623.389 1232.71 622.488C1230.67 559.159 1144.54 497.631 1086.77 456.489C1080.51 452.027 1074.66 447.852 1069.3 443.963C1055.3 433.769 1041.31 423.044 1027.24 412.319C951.463 354.19 873.066 294.143 778.232 301.636C722.793 306.016 683.311 334.385 641.616 364.391L640.02 365.537C621.486 378.882 601.929 392.146 583.068 405V405.041C543.749 430.79 505.781 458.586 469.407 488.306C439.376 513.768 385.001 559.945 369.537 613.853C368.227 616.924 367.45 620.158 367.164 623.474V623.801C367.164 624.251 367 624.743 367 625.193H367.041C366.673 639.03 372.155 652.416 382.138 662.036L382.142 662.02ZM385.702 616.785C388.688 611.341 392.534 606.388 397.034 602.13C418.841 601.639 581.683 599.224 712.076 631.891C496.669 626.446 412.466 643.885 392.531 649.085V649.125C386.557 642.862 383.284 634.512 383.407 625.874C384.021 622.803 384.716 619.774 385.698 616.786L385.702 616.785ZM945.609 493.483C900.604 510.348 854.616 550.425 840.747 563.156C838.087 562.01 835.387 561.068 832.646 560.25C839.601 532.986 850.648 506.951 865.377 483.003C892.299 485.131 919.056 488.611 945.609 493.483ZM1216.5 626.566C1216.46 633.525 1214.21 640.28 1210.12 645.929L882.804 631.724C940.615 619.566 1112.5 586.366 1201.73 601.308H1201.77C1208.69 607.039 1213.76 614.694 1216.38 623.291C1216.38 624.397 1216.54 625.461 1216.5 626.566ZM868.407 618.051L867.793 612.894C897.947 599.384 1047.82 534.296 1113.77 545.717H1113.85C1136.39 555.951 1158 568.15 1178.37 582.191C1074.16 574.782 908.909 609.128 868.4 618.051L868.407 618.051ZM865.788 595.823L865.256 591.443H865.297C864.438 584.033 860.879 577.156 855.314 572.162C877.121 552.717 943.444 497.535 987.426 502.488H987.386C987.631 502.488 987.836 502.488 988.04 502.448C1017.54 509.57 1046.59 518.536 1074.94 529.343C1001.5 537.53 898.602 581.21 865.784 595.824L865.788 595.823ZM816.65 557.015C807.117 555.828 797.502 555.582 787.888 556.237C782.651 556.565 777.372 557.179 772.259 558.038H772.299C765.712 531.553 755.115 506.254 740.877 483.043C761.048 481.405 781.668 480.505 802.617 480.505C817.755 480.505 832.606 480.914 847.172 481.733H847.131C833.302 505.189 823.033 530.57 816.65 557.015ZM722.584 484.721C737.927 508.342 749.342 534.296 756.298 561.559C747.91 563.851 739.973 567.454 732.731 572.284C712.683 543.588 671.278 512.312 648.12 496.061C672.014 491.271 696.891 487.423 722.584 484.721ZM626.031 500.727C640.392 510.307 700.127 551.366 721.275 584.647V584.688C719.925 587.308 719.066 590.133 718.739 593.039C668.005 564.671 578.893 538.962 534.989 527.296C564.774 516.612 595.174 507.769 626.026 500.769L626.031 500.727ZM508.565 537.407C530.372 542.851 663.633 576.992 719.634 612.647L720.084 617.028C607.698 588.126 470.68 585.384 417.114 585.506C445.672 566.061 476.358 549.933 508.561 537.406L508.565 537.407ZM412.212 661.687C447.439 655.137 535.239 643.921 711.176 648.301L645.796 673.395C540.846 676.752 454.854 679.331 412.216 661.687H412.212ZM695.221 671.963L725.211 660.418C725.702 664.103 726.152 667.705 726.602 671.185C716.005 671.389 705.49 671.635 695.221 671.921L695.221 671.963ZM846.239 1011.37C819.072 1118.57 783.231 1198.32 736.672 1255.11C724.643 1270.83 706.6 1280.77 686.879 1282.53C672.805 1283.11 659.017 1278.15 648.46 1268.78C615.647 1240.86 629.927 1201.23 647.601 1172.91C730.535 1040.36 767.11 870.262 747.803 706.071C747.721 705.416 741.379 660.222 737.615 627.022C736.02 613.267 734.874 601.519 734.833 595.993C734.71 585.226 759.464 574.501 788.963 572.618C792.032 572.413 795.141 572.331 798.251 572.331L798.292 572.29C812.162 571.717 825.99 574.46 838.633 580.314C838.797 580.395 838.961 580.559 839.124 580.6C844.28 583.015 847.962 587.764 849.026 593.372C849.108 594.15 866.087 738.499 866.169 739.311C876.275 830.432 869.524 922.663 846.244 1011.37L846.239 1011.37ZM873.898 664.435L914.034 672.172C901.187 671.803 888.013 671.476 874.757 671.148L873.898 664.435ZM1015.99 675.201L873.81 647.733L1188.49 661.364C1154.73 675.733 1093.08 677.002 1015.99 675.201ZM479.969 500.766C515.932 471.415 553.41 443.987 592.242 418.566C611.226 405.67 630.824 392.366 649.563 378.857L651.159 377.711C692.727 347.827 728.609 322.037 779.509 317.984C868.085 311.066 943.899 369.073 1017.22 425.192C1031.42 436.122 1045.53 446.847 1059.6 457.122C1065.01 461.052 1070.94 465.268 1077.2 469.771C1114.72 496.502 1169.95 535.965 1198.29 576.655C1139.79 529.906 1012.83 477.831 862.305 466.496H861.896C842.461 465.022 822.7 464.203 802.57 464.203C631.468 464.203 481.558 519.14 410.57 570.267L410.652 570.185C431.149 544.559 454.389 521.307 479.96 500.757L479.969 500.766Z"></path>
<path mask="url(#path-5-outside-1_2530_185)" fill="black" d="M1216.46 629.066H1216.5V624.066H1216.46V629.066ZM382.142 662.02L385.591 658.4L379.198 652.308L377.263 660.925L382.142 662.02ZM384.965 664.353L381.683 668.126L388.502 660.819L384.965 664.353ZM385.865 665.09L389.036 661.224L388.953 661.156L388.866 661.091L385.865 665.09ZM647.393 689.775V684.775H647.314L647.235 684.778L647.393 689.775ZM647.557 689.775V694.775H647.636L647.715 694.773L647.557 689.775ZM728.772 687.524L733.727 686.852L733.127 682.434L728.67 682.525L728.772 687.524ZM731.595 708.197L736.561 707.613L736.56 707.602L731.595 708.197ZM633.733 1164.27L629.495 1161.62L629.495 1161.62L633.733 1164.27ZM637.865 1281.32L634.624 1285.12L642.865 1292.14V1281.32H637.865ZM637.865 1281.27L641.167 1277.52L632.865 1270.22V1281.27H637.865ZM684.303 1299L684.267 1304L684.285 1304H684.303V1299ZM687.698 1298.92L688.055 1303.91L688.082 1303.9L688.11 1303.9L687.698 1298.92ZM749.315 1265.47L745.45 1262.3L745.404 1262.36L745.359 1262.42L749.315 1265.47ZM862.156 1015.39H867.156L857.309 1014.16L862.156 1015.39ZM862.156 1015.43H857.156L866.993 1016.7L862.156 1015.43ZM882.449 737.397L887.419 736.847L887.419 736.845L882.449 737.397ZM876.64 687.659L876.757 682.661L870.996 682.526L871.674 688.248L876.64 687.659ZM952.453 689.829L952.293 694.826L952.295 694.827L952.453 689.829ZM1015.17 691.671L1015.05 696.67L1015.06 696.67L1015.17 691.671ZM1217.82 662.156L1221.3 665.749L1221.33 665.72L1221.36 665.69L1217.82 662.156ZM1219.34 660.396L1222.87 663.93L1222.87 663.93L1219.34 660.396ZM1219.62 660.027L1223.78 662.799L1224.62 661.54V660.027H1219.62ZM1219.62 659.945L1215.97 656.531L1214.62 657.972V659.945H1219.62ZM1232.55 629.775L1227.76 628.339L1227.59 628.891L1227.56 629.467L1232.55 629.775ZM1232.88 628.547L1237.78 629.527L1237.88 629.042V628.547H1232.88ZM1233 625.19H1238V625.077L1237.99 624.963L1233 625.19ZM1232.71 622.488L1227.72 622.65L1227.73 623.019L1227.79 623.382L1232.71 622.488ZM1086.77 456.489L1083.86 460.561L1083.87 460.562L1086.77 456.489ZM1069.3 443.963L1066.35 448.004L1066.36 448.01L1069.3 443.963ZM1027.24 412.319L1024.19 416.286L1024.2 416.291L1024.21 416.296L1027.24 412.319ZM778.232 301.636L778.626 306.62L778.626 306.62L778.232 301.636ZM641.616 364.391L644.533 368.452L644.536 368.449L641.616 364.391ZM640.02 365.537L637.103 361.476L637.099 361.48L640.02 365.537ZM583.068 405L580.252 400.869L578.068 402.357V405H583.068ZM583.068 405.041L585.807 409.224L588.068 407.744V405.041H583.068ZM469.407 488.306L466.243 484.434L466.208 484.463L466.173 484.493L469.407 488.306ZM369.537 613.853L374.136 615.815L374.257 615.53L374.343 615.232L369.537 613.853ZM367.164 623.474L362.182 623.043L362.164 623.258V623.474H367.164ZM367 625.193H362V630.193H367V625.193ZM367.041 625.193L372.039 625.326L372.176 620.193H367.041V625.193ZM382.138 662.036L378.669 665.637L385.07 671.805L387.017 663.131L382.138 662.036ZM385.702 616.785L386.783 621.667L388.995 621.177L390.085 619.19L385.702 616.785ZM397.034 602.13L396.922 597.131L394.997 597.175L393.598 598.498L397.034 602.13ZM712.076 631.891L711.95 636.889L713.291 627.041L712.076 631.891ZM392.531 649.085L391.269 644.246L387.531 645.221V649.085H392.531ZM392.531 649.125L388.912 652.576L397.531 661.613V649.125H392.531ZM383.407 625.874L378.504 624.894L378.414 625.344L378.407 625.802L383.407 625.874ZM385.698 616.786L384.617 611.904L381.837 612.52L380.948 615.225L385.698 616.786ZM945.609 493.483L947.364 498.165L964.282 491.825L946.511 488.565L945.609 493.483ZM840.747 563.156L838.768 567.748L841.742 569.03L844.128 566.84L840.747 563.156ZM832.646 560.25L827.801 559.014L826.614 563.666L831.215 565.041L832.646 560.25ZM865.377 483.003L865.771 478.018L862.721 477.777L861.118 480.383L865.377 483.003ZM1216.5 626.566L1211.5 626.381L1211.5 626.459L1211.5 626.537L1216.5 626.566ZM1210.12 645.929L1209.9 650.925L1212.59 651.041L1214.17 648.862L1210.12 645.929ZM882.804 631.724L881.775 626.831L882.587 636.719L882.804 631.724ZM1201.73 601.308L1200.9 606.24L1201.31 606.308H1201.73V601.308ZM1201.77 601.308L1204.96 597.459L1203.57 596.308H1201.77V601.308ZM1216.38 623.291H1221.38V622.547L1221.16 621.834L1216.38 623.291ZM868.407 618.051L868.283 623.05L874.054 623.193L873.372 617.461L868.407 618.051ZM867.793 612.894L865.749 608.331L862.394 609.834L862.828 613.484L867.793 612.894ZM1113.77 545.717L1112.91 550.643L1113.34 550.717H1113.77V545.717ZM1113.85 545.717L1115.92 541.164L1114.93 540.717H1113.85V545.717ZM1178.37 582.191L1178.02 587.179L1196.31 588.479L1181.21 578.074L1178.37 582.191ZM868.4 618.051L867.325 613.168L868.276 623.05L868.4 618.051ZM865.788 595.823L866.264 600.8L871.37 600.313L870.752 595.22L865.788 595.823ZM865.256 591.443V586.443H859.613L860.293 592.046L865.256 591.443ZM865.297 591.443V596.443H870.911L870.264 590.867L865.297 591.443ZM855.314 572.162L851.986 568.43L847.815 572.15L851.974 575.883L855.314 572.162ZM987.426 502.488V507.488L987.986 497.52L987.426 502.488ZM988.04 502.448L989.214 497.587L988.141 497.328L987.059 497.545L988.04 502.448ZM1074.94 529.343L1075.5 534.312L1076.72 524.671L1074.94 529.343ZM865.784 595.824L863.75 591.256L866.259 600.801L865.784 595.824ZM816.65 557.015L816.032 561.977L820.463 562.528L821.511 558.188L816.65 557.015ZM787.888 556.237L788.2 561.227L788.213 561.227L788.227 561.226L787.888 556.237ZM772.259 558.038L771.43 553.108L772.259 563.038V558.038ZM772.299 558.038V563.038H778.695L777.152 556.832L772.299 558.038ZM740.877 483.043L740.473 478.059L732.359 478.718L736.615 485.657L740.877 483.043ZM847.172 481.733V486.733L847.453 476.741L847.172 481.733ZM847.131 481.733V476.733H844.275L842.824 479.194L847.131 481.733ZM722.584 484.721L726.778 481.998L725.109 479.429L722.062 479.749L722.584 484.721ZM756.298 561.559L757.616 566.382L762.358 565.086L761.143 560.323L756.298 561.559ZM732.731 572.284L728.632 575.147L731.435 579.159L735.506 576.444L732.731 572.284ZM648.12 496.061L647.137 491.158L635.697 493.451L645.248 500.153L648.12 496.061ZM626.031 500.727L628.806 496.568L622.12 492.108L621.074 500.077L626.031 500.727ZM721.275 584.647H726.275V583.193L725.495 581.966L721.275 584.647ZM721.275 584.688L725.72 586.979L726.275 585.901V584.688H721.275ZM718.739 593.039L716.298 597.403L722.865 601.075L723.707 593.599L718.739 593.039ZM534.989 527.296L533.301 522.589L518.197 528.007L533.705 532.128L534.989 527.296ZM626.026 500.769L627.132 505.645L630.53 504.874L630.983 501.42L626.026 500.769ZM508.565 537.407L509.776 532.555L509.402 532.462L509.018 532.427L508.565 537.407ZM719.634 612.647L724.608 612.136L724.361 609.729L722.32 608.43L719.634 612.647ZM720.084 617.028L718.839 621.87L725.792 623.658L725.058 616.517L720.084 617.028ZM417.114 585.506L414.3 581.373L400.832 590.544L417.125 590.506L417.114 585.506ZM508.561 537.406L509.014 532.427L507.844 532.32L506.748 532.746L508.561 537.406ZM412.212 661.687L411.298 656.772L412.212 666.687V661.687ZM711.176 648.301L712.968 652.969L711.301 643.303L711.176 648.301ZM645.796 673.395L645.956 678.392L646.799 678.365L647.587 678.063L645.796 673.395ZM412.216 661.687L414.127 657.067L413.209 656.687H412.216V661.687ZM695.221 671.963L690.221 671.985L690.254 679.232L697.017 676.629L695.221 671.963ZM725.211 660.418L730.167 659.758L729.33 653.475L723.415 655.752L725.211 660.418ZM726.602 671.185L726.698 676.184L732.276 676.076L731.561 670.543L726.602 671.185ZM695.221 671.921L695.081 666.923L690.199 667.06L690.221 671.944L695.221 671.921ZM846.239 1011.37L850.455 1008.68L844.234 998.926L841.392 1010.14L846.239 1011.37ZM736.672 1255.11L732.806 1251.94L732.752 1252L732.701 1252.07L736.672 1255.11ZM686.879 1282.53L687.083 1287.53L687.203 1287.52L687.324 1287.51L686.879 1282.53ZM648.46 1268.78L651.781 1265.04L651.741 1265.01L651.701 1264.97L648.46 1268.78ZM647.601 1172.91L643.363 1170.26L643.359 1170.26L647.601 1172.91ZM747.803 706.071L752.769 705.487L752.767 705.469L752.764 705.451L747.803 706.071ZM737.615 627.022L742.583 626.459L742.582 626.446L737.615 627.022ZM734.833 595.993L739.833 595.956L739.833 595.946L739.833 595.936L734.833 595.993ZM788.963 572.618L789.282 577.607L789.289 577.607L789.296 577.606L788.963 572.618ZM798.251 572.331V577.331H800.323L801.787 575.866L798.251 572.331ZM798.292 572.29L798.085 567.294L796.135 567.375L794.755 568.755L798.292 572.29ZM838.633 580.314L840.87 575.842L840.803 575.808L840.734 575.776L838.633 580.314ZM839.124 580.6L841.246 576.072L840.807 575.867L840.338 575.75L839.124 580.6ZM849.026 593.372L853.998 592.849L853.977 592.643L853.938 592.44L849.026 593.372ZM866.169 739.311L861.195 739.814L861.197 739.838L861.2 739.862L866.169 739.311ZM846.244 1011.37L842.029 1014.06L848.178 1023.7L851.08 1012.64L846.244 1011.37ZM873.898 664.435L874.844 659.525L868.062 658.218L868.938 665.069L873.898 664.435ZM914.034 672.172L913.891 677.17L914.981 667.262L914.034 672.172ZM874.757 671.148L869.797 671.783L870.342 676.041L874.633 676.147L874.757 671.148ZM1015.99 675.201L1015.04 680.11L1015.45 680.19L1015.87 680.2L1015.99 675.201ZM873.81 647.733L874.027 642.737L872.862 652.642L873.81 647.733ZM1188.49 661.364L1190.44 665.965L1188.7 656.369L1188.49 661.364ZM479.969 500.766L476.371 504.238L479.566 507.548L483.13 504.64L479.969 500.766ZM592.242 418.566L594.981 422.749L595.016 422.726L595.051 422.702L592.242 418.566ZM649.563 378.857L646.646 374.796L646.639 374.801L649.563 378.857ZM651.159 377.711L654.076 381.772L654.077 381.771L651.159 377.711ZM779.509 317.984L779.12 312.999L779.112 313L779.509 317.984ZM1017.22 425.192L1020.27 421.23L1020.26 421.221L1017.22 425.192ZM1059.6 457.122L1056.66 461.16L1056.66 461.165L1059.6 457.122ZM1077.2 469.771L1074.28 473.83L1074.29 473.836L1074.3 473.843L1077.2 469.771ZM1198.29 576.655L1195.17 580.561L1202.4 573.798L1198.29 576.655ZM862.305 466.496L862.68 461.51L862.493 461.496H862.305V466.496ZM861.896 466.496L861.518 471.482L861.706 471.496H861.896V466.496ZM410.57 570.267L407.033 566.732L413.492 574.324L410.57 570.267ZM410.652 570.185L414.188 573.72L414.384 573.524L414.556 573.308L410.652 570.185ZM479.96 500.757L483.558 497.284L480.387 494L476.828 496.86L479.96 500.757ZM378.693 665.64C379.308 666.226 379.942 666.731 380.429 667.115C380.968 667.539 381.33 667.818 381.683 668.126L388.247 660.581C387.659 660.07 387.039 659.592 386.617 659.259C386.142 658.885 385.835 658.633 385.591 658.4L378.693 665.64ZM388.502 660.819L388.461 660.778L381.388 667.847L381.429 667.888L388.502 660.819ZM381.388 667.847C381.968 668.427 382.587 668.881 382.864 669.089L388.866 661.091C388.691 660.959 388.598 660.889 388.519 660.826C388.448 660.768 388.439 660.756 388.461 660.778L381.388 667.847ZM382.694 668.956C403.347 685.894 438.013 693.097 482.46 695.825C527.193 698.57 583.193 696.817 647.552 694.773L647.235 684.778C582.711 686.827 527.238 688.553 483.073 685.843C438.622 683.116 406.966 675.93 389.036 661.224L382.694 668.956ZM647.393 694.775H647.557V684.775H647.393V694.775ZM647.715 694.773C673.617 693.954 700.839 693.095 728.874 692.523L728.67 682.525C700.571 683.099 673.295 683.959 647.399 684.778L647.715 694.773ZM723.817 688.196C725.383 699.735 726.514 707.818 726.631 708.792L736.56 707.602C736.431 706.528 735.271 698.237 733.727 686.852L723.817 688.196ZM726.629 708.781C745.366 868.112 709.901 1033.2 629.495 1161.62L637.97 1166.93C719.657 1036.46 755.547 869.066 736.561 707.613L726.629 708.781ZM629.495 1161.62C614.209 1186.04 606.626 1209.35 607.373 1230.49C608.126 1251.8 617.335 1270.41 634.624 1285.12L641.106 1277.51C625.827 1264.5 618.015 1248.48 617.367 1230.14C616.713 1211.63 623.348 1190.28 637.971 1166.93L629.495 1161.62ZM642.865 1281.32V1281.27H632.865V1281.32H642.865ZM634.563 1285.03C648.311 1297.12 665.958 1303.87 684.267 1304L684.339 1294C668.443 1293.89 653.114 1288.03 641.167 1277.52L634.563 1285.03ZM684.303 1304C685.379 1304 686.702 1304 688.055 1303.91L687.342 1293.93C686.403 1294 685.435 1294 684.303 1294V1304ZM688.11 1303.9C713.808 1301.78 737.476 1288.97 753.272 1268.53L745.359 1262.42C731.286 1280.62 710.195 1292.04 687.287 1293.94L688.11 1303.9ZM753.181 1268.64C801.933 1209.21 839.082 1126.65 867.002 1016.62L857.309 1014.16C829.588 1123.41 792.928 1204.42 745.45 1262.3L753.181 1268.64ZM857.156 1015.39V1015.43H867.156V1015.39H857.156ZM866.993 1016.7C890.879 925.431 897.796 830.576 887.419 736.847L877.48 737.947C887.722 830.46 880.894 924.083 857.319 1014.17L866.993 1016.7ZM887.419 736.845C886.925 732.403 884.673 712.941 881.605 687.07L871.674 688.248C874.743 714.121 876.991 733.549 877.48 737.949L887.419 736.845ZM876.522 692.658C902.685 693.272 928.076 694.049 952.293 694.826L952.614 684.832C928.388 684.054 902.964 683.275 876.757 682.661L876.522 692.658ZM952.295 694.827C974.264 695.522 995.147 696.178 1015.05 696.67L1015.3 686.673C995.434 686.182 974.585 685.528 952.612 684.832L952.295 694.827ZM1015.06 696.67C1032.26 697.08 1048.75 697.367 1064.27 697.367V687.367C1048.86 687.367 1032.46 687.082 1015.29 686.673L1015.06 696.67ZM1064.27 697.367C1101.76 697.367 1134.25 695.864 1160.6 691.259C1186.84 686.672 1207.72 678.891 1221.3 665.749L1214.34 658.563C1202.93 669.614 1184.45 676.938 1158.87 681.409C1133.4 685.861 1101.61 687.367 1064.27 687.367V697.367ZM1221.36 665.69C1221.88 665.17 1222.28 664.652 1222.5 664.382C1222.75 664.058 1222.82 663.983 1222.87 663.93L1215.8 656.861C1215.28 657.381 1214.87 657.899 1214.66 658.17C1214.4 658.493 1214.34 658.568 1214.28 658.621L1221.36 665.69ZM1222.87 663.93C1223.39 663.415 1223.71 662.903 1223.78 662.799L1215.46 657.255C1215.37 657.397 1215.53 657.131 1215.8 656.861L1222.87 663.93ZM1224.62 660.027V659.945H1214.62V660.027H1224.62ZM1223.27 663.36C1231.77 654.27 1236.78 642.482 1237.54 630.083L1227.56 629.467C1226.94 639.584 1222.85 649.165 1215.97 656.531L1223.27 663.36ZM1237.34 631.211C1237.45 630.843 1237.64 630.207 1237.78 629.527L1227.97 627.567C1227.95 627.706 1227.9 627.888 1227.76 628.339L1237.34 631.211ZM1237.88 628.547C1237.88 628.29 1237.87 628.06 1237.86 627.895C1237.85 627.686 1237.85 627.637 1237.84 627.523C1237.84 627.355 1237.85 627.425 1237.83 627.575L1227.93 626.162C1227.82 626.886 1227.84 627.508 1227.85 627.893C1227.87 628.424 1227.88 628.37 1227.88 628.547H1237.88ZM1237.83 627.575C1237.94 626.788 1238 626.019 1238 625.19H1228C1228 625.507 1227.98 625.803 1227.93 626.162L1237.83 627.575ZM1237.99 624.963C1237.95 623.916 1237.85 622.78 1237.63 621.594L1227.79 623.382C1227.91 623.998 1227.97 624.663 1228.01 625.417L1237.99 624.963ZM1237.71 622.327C1236.62 588.595 1213.29 556.181 1184.14 527.598C1154.8 498.837 1118.5 472.949 1089.67 452.417L1083.87 460.562C1112.81 481.172 1148.45 506.619 1177.14 534.739C1206 563.038 1226.76 593.053 1227.72 622.65L1237.71 622.327ZM1089.67 452.418C1083.41 447.955 1077.57 443.791 1072.23 439.916L1066.36 448.01C1071.74 451.913 1077.61 456.1 1083.86 460.561L1089.67 452.418ZM1072.24 439.921C1058.3 429.768 1044.36 419.082 1030.27 408.342L1024.21 416.296C1038.26 427.006 1052.3 437.771 1066.35 448.004L1072.24 439.921ZM1030.28 408.352C954.885 350.514 874.925 288.98 777.839 296.651L778.626 306.62C871.207 299.305 948.04 357.866 1024.19 416.286L1030.28 408.352ZM777.839 296.651C720.816 301.157 680.265 330.417 638.695 360.333L644.536 368.449C686.357 338.353 724.77 310.875 778.626 306.62L777.839 296.651ZM638.699 360.33L637.103 361.476L642.937 369.598L644.533 368.452L638.699 360.33ZM637.099 361.48C618.629 374.778 599.133 388.001 580.252 400.869L585.883 409.132C604.725 396.291 624.344 382.986 642.942 369.595L637.099 361.48ZM578.068 405V405.041H588.068V405H578.068ZM580.328 400.858C540.864 426.702 502.754 454.602 466.243 484.434L472.57 492.178C508.807 462.57 546.634 434.878 585.807 409.224L580.328 400.858ZM466.173 484.493C451.171 497.212 429.825 515.321 410.289 537.071C390.789 558.781 372.764 584.47 364.731 612.475L374.343 615.232C381.774 589.328 398.668 564.974 417.729 543.754C436.754 522.572 457.611 504.863 472.64 492.12L466.173 484.493ZM364.937 611.892C363.409 615.475 362.512 619.229 362.182 623.043L372.145 623.904C372.389 621.086 373.046 618.372 374.136 615.815L364.937 611.892ZM362.164 623.474V623.801H372.164V623.474H362.164ZM362.164 623.801C362.164 623.621 362.179 623.503 362.181 623.492C362.181 623.489 362.179 623.505 362.156 623.641C362.138 623.74 362.099 623.96 362.068 624.196C362.036 624.44 362 624.788 362 625.193H372C372 625.373 371.984 625.491 371.983 625.502C371.982 625.505 371.984 625.489 372.008 625.353C372.025 625.254 372.064 625.034 372.095 624.799C372.127 624.555 372.164 624.207 372.164 623.801H362.164ZM367 630.193H367.041V620.193H367V630.193ZM362.043 625.06C361.637 640.302 367.676 655.043 378.669 665.637L385.608 658.436C376.635 649.789 371.708 637.757 372.039 625.326L362.043 625.06ZM387.017 663.131L387.021 663.115L377.263 660.925L377.26 660.941L387.017 663.131ZM390.085 619.19C392.818 614.209 396.342 609.669 400.471 605.762L393.598 598.498C388.727 603.107 384.559 608.472 381.318 614.38L390.085 619.19ZM397.147 607.129C418.946 606.638 581.185 604.253 710.861 636.741L713.291 627.041C582.181 594.194 418.737 596.64 396.922 597.131L397.147 607.129ZM712.203 626.892C496.545 621.442 411.829 638.884 391.269 644.246L393.793 653.923C413.104 648.886 496.792 631.451 711.95 636.889L712.203 626.892ZM387.531 649.085V649.125H397.531V649.085H387.531ZM396.149 645.675C391.079 640.359 388.302 633.272 388.406 625.945L378.407 625.802C378.266 635.751 382.035 645.366 388.912 652.576L396.149 645.675ZM388.31 626.854C388.908 623.864 389.557 621.058 390.448 618.347L380.948 615.225C379.875 618.49 379.134 621.743 378.504 624.894L388.31 626.854ZM386.779 621.668L386.783 621.667L384.62 611.904L384.617 611.904L386.779 621.668ZM943.855 488.8C897.851 506.04 851.237 546.739 837.365 559.473L844.128 566.84C857.995 554.11 903.357 514.656 947.364 498.165L943.855 488.8ZM842.726 558.564C839.851 557.325 836.961 556.32 834.076 555.459L831.215 565.041C833.812 565.816 836.324 566.694 838.768 567.748L842.726 558.564ZM837.49 561.486C844.321 534.712 855.169 509.143 869.636 485.622L861.118 480.383C846.126 504.758 834.881 531.26 827.801 559.014L837.49 561.486ZM864.983 487.987C891.737 490.103 918.324 493.56 944.707 498.4L946.511 488.565C919.787 483.662 892.86 480.16 865.771 478.018L864.983 487.987ZM1211.5 626.537C1211.47 632.433 1209.56 638.176 1206.07 642.997L1214.17 648.862C1218.86 642.384 1221.45 634.618 1221.5 626.596L1211.5 626.537ZM1210.33 640.934L883.02 626.729L882.587 636.719L1209.9 650.925L1210.33 640.934ZM883.833 636.617C912.676 630.551 969.958 619.24 1031.13 611.312C1092.46 603.362 1157.09 598.903 1200.9 606.24L1202.56 596.377C1157.14 588.772 1091.21 593.441 1029.84 601.395C968.308 609.371 910.743 620.739 881.775 626.831L883.833 636.617ZM1201.73 606.308H1201.77V596.308H1201.73V606.308ZM1198.58 605.158C1204.74 610.26 1209.26 617.081 1211.59 624.748L1221.16 621.834C1218.26 612.308 1212.63 603.819 1204.96 597.459L1198.58 605.158ZM1211.38 623.291C1211.38 624.05 1211.43 624.792 1211.46 625.26C1211.5 625.797 1211.51 626.112 1211.5 626.381L1221.5 626.751C1221.53 625.916 1221.48 625.145 1221.44 624.598C1221.4 623.981 1221.38 623.638 1221.38 623.291H1211.38ZM873.372 617.461L872.758 612.303L862.828 613.484L863.442 618.642L873.372 617.461ZM869.837 617.457C884.853 610.729 929.689 591.156 978.944 574.699C1003.57 566.469 1029.21 559.051 1052.72 554.4C1076.35 549.727 1097.35 547.948 1112.91 550.643L1114.62 540.79C1097.21 537.775 1074.75 539.849 1050.78 544.59C1026.7 549.353 1000.63 556.911 975.775 565.214C926.066 581.823 880.887 601.548 865.749 608.331L869.837 617.457ZM1113.77 550.717H1113.85V540.717H1113.77V550.717ZM1111.78 550.27C1134.06 560.383 1155.4 572.437 1175.53 586.309L1181.21 578.074C1160.59 563.864 1138.73 551.519 1115.92 541.164L1111.78 550.27ZM1178.73 577.204C1126.05 573.459 1058.24 580.264 998.768 589.05C939.207 597.849 887.643 608.693 867.325 613.168L869.476 622.934C889.666 618.487 940.983 607.695 1000.23 598.943C1059.56 590.177 1126.48 583.515 1178.02 587.179L1178.73 577.204ZM868.276 623.05L868.283 623.05L868.531 613.053L868.524 613.053L868.276 623.05ZM870.752 595.22L870.22 590.84L860.293 592.046L860.825 596.426L870.752 595.22ZM865.256 596.443H865.297V586.443H865.256V596.443ZM870.264 590.867C869.264 582.243 865.124 574.249 858.653 568.441L851.974 575.883C856.633 580.064 859.612 585.824 860.331 592.019L870.264 590.867ZM858.641 575.894C869.454 566.252 891.251 547.802 915.717 532.408C927.95 524.711 940.732 517.854 953.052 513.232C965.424 508.591 976.969 506.342 986.867 507.457L987.986 497.52C975.893 496.158 962.654 498.95 949.539 503.869C936.372 508.809 922.963 516.034 910.392 523.944C885.249 539.763 862.98 558.627 851.986 568.43L858.641 575.894ZM987.426 497.488H987.386V507.488H987.426V497.488ZM987.386 507.488C987.53 507.488 988.245 507.506 989.021 507.35L987.059 497.545C987.273 497.502 987.433 497.492 987.49 497.489C987.517 497.488 987.527 497.488 987.506 497.488C987.483 497.488 987.453 497.488 987.386 497.488V507.488ZM986.867 507.308C1016.16 514.382 1045.01 523.285 1073.16 534.015L1076.72 524.671C1048.17 513.787 1018.92 504.759 989.214 497.587L986.867 507.308ZM1074.39 524.374C1000.06 532.66 896.47 576.686 863.75 591.256L867.817 600.391C900.734 585.734 1002.94 542.4 1075.5 534.312L1074.39 524.374ZM866.259 600.801L866.264 600.8L865.313 590.846L865.308 590.846L866.259 600.801ZM817.268 552.053C807.409 550.825 797.473 550.573 787.548 551.249L788.227 561.226C797.531 560.592 806.825 560.83 816.032 561.977L817.268 552.053ZM787.575 551.247C782.162 551.585 776.711 552.22 771.43 553.108L773.087 562.969C778.034 562.138 783.139 561.544 788.2 561.227L787.575 551.247ZM772.259 563.038H772.299V553.038H772.259V563.038ZM777.152 556.832C770.441 529.851 759.646 504.077 745.139 480.428L736.615 485.657C750.584 508.43 760.983 533.254 767.447 559.245L777.152 556.832ZM741.282 488.026C761.326 486.399 781.812 485.505 802.617 485.505V475.505C781.525 475.505 760.769 476.412 740.473 478.059L741.282 488.026ZM802.617 485.505C817.665 485.505 832.423 485.912 846.892 486.725L847.453 476.741C832.79 475.917 817.845 475.505 802.617 475.505V485.505ZM847.172 476.733H847.131V486.733H847.172V476.733ZM842.824 479.194C828.744 503.076 818.289 528.918 811.79 555.842L821.511 558.188C827.778 532.223 837.861 507.302 851.439 484.272L842.824 479.194ZM718.391 487.445C733.44 510.613 744.633 536.065 751.453 562.795L761.143 560.323C754.051 532.527 742.414 506.071 726.778 481.998L718.391 487.445ZM754.98 556.736C746.079 559.168 737.649 562.994 729.957 568.124L735.506 576.444C742.297 571.914 749.742 568.534 757.616 566.382L754.98 556.736ZM736.83 569.42C716.208 539.903 674.083 508.172 650.992 491.968L645.248 500.153C668.473 516.452 709.158 547.273 728.632 575.147L736.83 569.42ZM649.103 500.963C672.847 496.203 697.571 492.379 723.107 489.694L722.062 479.749C696.211 482.467 671.181 486.339 647.137 491.158L649.103 500.963ZM623.257 504.887C630.374 509.635 648.761 522.201 667.969 537.691C687.313 553.29 706.958 571.438 717.055 587.329L725.495 581.966C714.444 564.574 693.648 545.552 674.247 529.907C654.711 514.152 636.049 501.4 628.806 496.568L623.257 504.887ZM716.275 584.647V584.688H726.275V584.647H716.275ZM716.831 582.398C715.205 585.552 714.166 588.963 713.77 592.48L723.707 593.599C723.966 591.303 724.645 589.064 725.72 586.979L716.831 582.398ZM721.179 588.675C669.809 559.951 580.084 534.105 536.273 522.463L533.705 532.128C577.701 543.819 666.201 569.391 716.298 597.403L721.179 588.675ZM536.677 532.002C566.27 521.387 596.475 512.601 627.132 505.645L624.919 495.893C593.872 502.937 563.279 511.836 533.301 522.589L536.677 532.002ZM630.983 501.42L630.989 501.378L621.074 500.077L621.068 500.118L630.983 501.42ZM507.354 542.258C518.21 544.968 556.864 554.836 599.763 568.463C642.828 582.144 689.563 599.429 716.949 616.865L722.32 608.43C693.704 590.211 645.808 572.598 602.79 558.933C559.607 545.215 520.726 535.289 509.776 532.555L507.354 542.258ZM714.66 613.158L715.111 617.539L725.058 616.517L724.608 612.136L714.66 613.158ZM721.33 612.185C608.283 583.114 470.718 580.384 417.102 580.506L417.125 590.506C470.641 590.384 607.113 593.138 718.839 621.87L721.33 612.185ZM419.928 589.639C448.172 570.408 478.521 554.456 510.374 542.066L506.748 532.746C474.194 545.41 443.172 561.714 414.3 581.373L419.928 589.639ZM508.108 542.386L508.112 542.386L509.018 532.427L509.014 532.427L508.108 542.386ZM413.126 666.603C447.914 660.135 535.347 648.925 711.052 653.3L711.301 643.303C535.13 638.916 446.964 650.14 411.298 656.772L413.126 666.603ZM709.385 643.633L644.004 668.727L647.587 678.063L712.968 652.969L709.385 643.633ZM645.636 668.397C593.117 670.077 545.546 671.554 505.782 670.418C465.86 669.278 434.522 665.506 414.127 657.067L410.304 666.307C432.547 675.512 465.525 679.272 505.496 680.414C545.625 681.56 593.524 680.069 645.956 678.392L645.636 668.397ZM412.216 656.687H412.212V666.687H412.216V656.687ZM697.017 676.629L727.007 665.085L723.415 655.752L693.425 667.296L697.017 676.629ZM720.255 661.079C720.744 664.753 721.189 668.315 721.643 671.826L731.561 670.543C731.115 667.095 730.659 663.452 730.167 659.758L720.255 661.079ZM726.505 666.185C715.895 666.39 705.366 666.636 695.081 666.923L695.36 676.919C705.614 676.633 716.115 676.388 726.698 676.184L726.505 666.185ZM690.221 671.944L690.221 671.985L700.221 671.94L700.221 671.899L690.221 671.944ZM841.392 1010.14C814.323 1116.96 778.724 1195.94 732.806 1251.94L740.538 1258.28C787.738 1200.71 823.822 1120.18 851.086 1012.59L841.392 1010.14ZM732.701 1252.07C721.523 1266.68 704.758 1275.92 686.435 1277.55L687.324 1287.51C708.442 1285.63 727.764 1274.98 740.643 1258.15L732.701 1252.07ZM686.676 1277.54C673.904 1278.06 661.376 1273.56 651.781 1265.04L645.14 1272.52C656.657 1282.75 671.706 1288.16 687.083 1287.53L686.676 1277.54ZM651.701 1264.97C636.7 1252.21 632.536 1237.01 634.074 1221.49C635.641 1205.66 643.175 1189.45 651.843 1175.55L643.359 1170.26C634.353 1184.7 625.91 1202.45 624.122 1220.5C622.305 1238.86 627.408 1257.43 645.22 1272.59L651.701 1264.97ZM651.84 1175.56C735.412 1041.99 772.201 870.74 752.769 705.487L742.837 706.655C762.019 869.783 725.658 1038.72 643.363 1170.26L651.84 1175.56ZM752.764 705.451C752.66 704.616 746.348 659.658 742.583 626.459L732.647 627.585C734.535 644.234 737.066 663.87 739.134 679.41C740.168 687.183 741.087 693.938 741.752 698.791C742.085 701.218 742.355 703.168 742.543 704.533C742.638 705.217 742.712 705.749 742.764 706.125C742.82 706.53 742.842 706.692 742.842 706.691L752.764 705.451ZM742.582 626.446C740.977 612.615 739.871 601.157 739.833 595.956L729.833 596.03C729.877 601.881 731.062 613.92 732.649 627.598L742.582 626.446ZM739.833 595.936C739.825 595.257 740.217 593.825 742.48 591.739C744.685 589.706 748.139 587.567 752.774 585.564C762.006 581.573 774.985 578.52 789.282 577.607L788.644 567.628C773.441 568.599 759.295 571.85 748.806 576.385C743.58 578.644 739.025 581.322 735.701 584.387C732.436 587.399 729.78 591.345 729.833 596.05L739.833 595.936ZM789.296 577.606C792.231 577.411 795.227 577.331 798.251 577.331V567.331C795.055 567.331 791.832 567.415 788.63 567.629L789.296 577.606ZM801.787 575.866L801.828 575.825L794.755 568.755L794.714 568.796L801.787 575.866ZM798.498 577.286C811.574 576.745 824.611 579.331 836.533 584.851L840.734 575.776C827.37 569.588 812.75 566.688 798.085 567.294L798.498 577.286ZM836.396 584.785C836.159 584.667 835.997 584.557 835.967 584.537C835.946 584.523 835.934 584.515 835.951 584.526C835.957 584.53 836.003 584.563 836.045 584.592C836.127 584.648 836.334 584.79 836.602 584.936C836.868 585.081 837.319 585.303 837.911 585.451L840.338 575.75C840.6 575.815 840.821 575.895 840.992 575.967C841.163 576.038 841.302 576.109 841.402 576.163C841.502 576.218 841.579 576.266 841.627 576.296C841.674 576.326 841.706 576.348 841.713 576.353C841.714 576.353 841.719 576.357 841.684 576.333C841.66 576.316 841.607 576.279 841.546 576.238C841.483 576.195 841.393 576.136 841.285 576.071C841.178 576.006 841.037 575.925 840.87 575.842L836.396 584.785ZM837.003 585.128C840.701 586.86 843.348 590.269 844.113 594.304L853.938 592.44C852.576 585.259 847.858 579.171 841.246 576.072L837.003 585.128ZM844.053 593.895C844.098 594.325 848.371 630.666 852.632 666.913C854.764 685.056 856.897 703.199 858.502 716.858C859.304 723.688 859.974 729.396 860.446 733.422C860.683 735.435 860.869 737.027 860.998 738.128C861.132 739.273 861.195 739.815 861.195 739.814L871.144 738.809C871.097 738.348 866.822 701.978 862.563 665.745C860.431 647.602 858.298 629.46 856.693 615.806C855.891 608.978 855.221 603.273 854.748 599.25C854.512 597.239 854.326 595.648 854.197 594.549C854.133 593.999 854.083 593.572 854.048 593.278C854.011 592.955 853.997 592.836 853.998 592.849L844.053 593.895ZM861.2 739.862C871.238 830.374 864.532 921.987 841.408 1010.1L851.08 1012.64C874.516 923.338 881.312 830.491 871.139 738.76L861.2 739.862ZM850.459 1008.68L850.455 1008.68L842.024 1014.06L842.029 1014.06L850.459 1008.68ZM872.951 669.344L913.088 677.081L914.981 667.262L874.844 659.525L872.951 669.344ZM914.178 667.174C901.319 666.805 888.136 666.477 874.88 666.15L874.633 676.147C887.891 676.474 901.055 676.802 913.891 677.17L914.178 667.174ZM879.716 670.514L878.857 663.8L868.938 665.069L869.797 671.783L879.716 670.514ZM1016.94 670.292L874.759 642.823L872.862 652.642L1015.04 680.11L1016.94 670.292ZM873.594 652.728L1188.27 666.359L1188.7 656.369L874.027 642.737L873.594 652.728ZM1186.53 656.764C1170.46 663.604 1147.3 667.477 1118.16 669.356C1089.13 671.23 1054.62 671.102 1016.1 670.202L1015.87 680.2C1054.44 681.101 1089.31 681.239 1118.81 679.336C1148.21 677.439 1172.76 673.493 1190.44 665.965L1186.53 656.764ZM483.13 504.64C518.958 475.4 556.294 448.075 594.981 422.749L589.503 414.382C550.526 439.899 512.907 467.43 476.807 496.892L483.13 504.64ZM595.051 422.702C614.024 409.814 633.681 396.47 652.487 382.913L646.639 374.801C627.967 388.262 608.428 401.526 589.432 414.43L595.051 422.702ZM652.48 382.918L654.076 381.772L648.241 373.65L646.646 374.796L652.48 382.918ZM654.077 381.771C695.793 351.781 730.596 326.895 779.906 322.968L779.112 313C726.622 317.18 689.661 343.873 648.24 373.651L654.077 381.771ZM779.899 322.969C822.935 319.608 863.073 331.989 901.754 352.373C940.504 372.792 977.45 401.05 1014.18 429.162L1020.26 421.221C983.667 393.215 946.046 364.409 906.416 343.526C866.716 322.605 824.659 309.443 779.12 312.999L779.899 322.969ZM1014.17 429.154C1028.38 440.095 1042.53 450.849 1056.66 461.16L1062.55 453.083C1048.53 442.845 1034.45 432.149 1020.27 421.23L1014.17 429.154ZM1056.66 461.165C1062.08 465.104 1068.05 469.352 1074.28 473.83L1080.12 465.712C1073.82 461.184 1067.93 457 1062.55 453.079L1056.66 461.165ZM1074.3 473.843C1112.04 500.734 1166.45 539.683 1194.19 579.513L1202.4 573.798C1173.46 532.247 1117.39 492.27 1080.1 465.699L1074.3 473.843ZM1201.42 572.749C1141.93 525.218 1013.94 472.9 862.68 461.51L861.929 471.482C1011.73 482.763 1137.64 534.594 1195.17 580.561L1201.42 572.749ZM862.305 461.496H861.896V471.496H862.305V461.496ZM862.274 461.51C842.723 460.028 822.836 459.203 802.57 459.203V469.203C822.564 469.203 842.199 470.017 861.518 471.482L862.274 461.51ZM802.57 459.203C630.588 459.203 479.614 514.378 407.648 566.21L413.492 574.324C483.501 523.902 632.347 469.203 802.57 469.203V459.203ZM414.106 573.802L414.188 573.72L407.115 566.651L407.033 566.732L414.106 573.802ZM414.556 573.308C434.824 547.97 457.804 524.977 483.092 504.654L476.828 496.86C450.974 517.637 427.475 541.148 406.747 567.062L414.556 573.308ZM476.363 504.229L476.371 504.238L483.566 497.293L483.558 497.284L476.363 504.229Z"></path>
</svg>
