<svg xmlns="http://www.w3.org/2000/svg" fill="none" viewBox="0 0 1600 1600" height="1600" width="1600">
<path fill="black" d="M337.405 959.789L313.496 876L289.587 959.789C285.925 972.619 279.536 983.786 270.888 992.791C262.423 1001.6 251.788 1008.33 239.404 1012.55L161 1038.5L238.68 1064.17C251.345 1068.34 262.244 1075.18 270.893 1084.19C279.542 1093.21 285.921 1104.36 289.593 1117.2L313.501 1201L337.41 1117.2C341.066 1104.38 347.446 1093.22 356.109 1084.2C364.773 1075.18 375.659 1068.35 388.331 1064.16L466 1038.5L388.331 1012.82C375.66 1008.65 364.774 1001.81 356.109 992.797C347.446 983.783 341.065 972.619 337.41 959.789L337.405 959.789Z"></path>
<path fill="black" d="M1177.22 439.38L1164 393L1150.78 439.38C1148.26 448.232 1143.83 455.964 1137.84 462.204C1131.85 468.453 1124.32 473.205 1115.59 476.079L1072 490.5L1115.59 504.921C1124.31 507.798 1131.85 512.541 1137.84 518.79C1143.83 525.032 1148.26 532.771 1150.78 541.629L1164 588L1177.22 541.629C1179.73 532.768 1184.17 525.038 1190.15 518.796C1196.15 512.538 1203.68 507.811 1212.41 504.921L1256 490.5L1212.41 476.079C1203.69 473.202 1196.15 468.453 1190.15 462.21C1184.16 455.953 1179.74 448.223 1177.22 439.377V439.38Z"></path>
<path fill="black" d="M1361.22 1033.38L1348 987L1334.78 1033.38C1332.26 1042.23 1327.83 1049.96 1321.84 1056.2C1315.85 1062.45 1308.32 1067.2 1299.59 1070.08L1256 1084.5L1299.59 1098.92C1308.31 1101.8 1315.85 1106.54 1321.84 1112.79C1327.83 1119.03 1332.26 1126.77 1334.78 1135.63L1348 1182L1361.22 1135.63C1363.73 1126.77 1368.17 1119.04 1374.15 1112.8C1380.15 1106.54 1387.68 1101.81 1396.41 1098.92L1440 1084.5L1396.41 1070.08C1387.69 1067.2 1380.15 1062.45 1374.15 1056.21C1368.16 1049.95 1363.74 1042.22 1361.22 1033.38V1033.38Z"></path>
<path fill="black" d="M195.218 537.38L181.995 491L168.782 537.38C166.257 546.232 161.834 553.964 155.839 560.204C149.854 566.453 142.321 571.205 133.586 574.079L90 588.5L133.586 602.921C142.306 605.798 149.846 610.541 155.839 616.79C161.834 623.032 166.257 630.771 168.782 639.629L181.995 686L195.218 639.629C197.734 630.768 202.166 623.038 208.152 616.796C214.154 610.538 221.679 605.811 230.414 602.921L274 588.5L230.414 574.079C221.688 571.202 214.146 566.453 208.152 560.21C202.157 553.953 197.743 546.223 195.218 537.377V537.38Z"></path>
<path stroke-width="7" stroke="black" fill="black" d="M634.917 520.991L634.914 520.991C588.101 533.512 556.144 570.882 556.144 614.402V683.309C556.144 690.456 562.646 695.43 569.581 695.43C576.517 695.43 583.018 690.452 583.018 683.309V614.401C583.018 582.203 606.655 553.84 642.575 544.232L642.576 544.232C649.359 542.417 653.983 535.779 651.54 528.903C649.204 522.316 641.589 519.212 634.917 520.991ZM602.707 1281.5L605.825 1280.58L602.707 1281.5C604.384 1287.18 610.037 1290.49 615.683 1290.49C616.75 1290.49 617.837 1290.38 618.916 1290.14C737.282 1263.84 862.975 1263.84 981.341 1290.14L982.1 1286.72L981.341 1290.14C988.066 1291.63 995.56 1288.22 997.55 1281.5L997.55 1281.5C999.61 1274.52 994.634 1268.12 987.791 1266.6C865.2 1239.36 735.046 1239.36 612.465 1266.6L612.464 1266.6C605.622 1268.12 600.648 1274.52 602.707 1281.5ZM523.466 423.12H598.346L581.485 482.12C532.505 497.413 498.503 538.701 498.503 585.281V1247.2L498.5 1247.2V1248.09C498.5 1294.15 541.198 1330.84 592.664 1330.84H1007.58C1059.05 1330.84 1101.75 1294.15 1101.75 1248.09V585.281C1101.75 538.702 1067.74 497.411 1018.77 482.12L1001.91 423.12H1076.78C1083.72 423.12 1090.22 418.142 1090.22 410.999V319.674C1090.22 273.908 1047.49 237.5 996.041 237.5H604.213C552.761 237.5 510.029 273.908 510.029 319.674V410.999C510.029 418.142 516.53 423.12 523.466 423.12ZM1030.68 1219.89C1037.61 1219.89 1044.11 1214.91 1044.11 1207.77V1006.06C1044.11 998.914 1037.61 993.936 1030.68 993.936C1023.74 993.936 1017.24 998.914 1017.24 1006.06V1207.77C1017.24 1214.91 1023.73 1219.89 1030.68 1219.89ZM1063.34 398.87H536.908L536.9 319.671C536.9 319.671 536.9 319.671 536.9 319.671C536.9 288.18 566.608 261.74 604.205 261.74L996.033 261.743C1033.63 261.743 1063.34 288.181 1063.34 319.671V398.87ZM990.284 479.557H609.98L626.105 423.113H974.154L990.284 479.557ZM592.668 1306.59C555.117 1306.59 525.378 1279.92 525.378 1248.08L525.382 585.279C525.382 548.244 553.482 514.772 594.599 503.803H1005.66C1046.78 514.771 1074.88 548.244 1074.88 585.279V1248.08C1074.88 1279.92 1045.14 1306.59 1007.59 1306.59H592.668Z"></path>
<path stroke-linecap="round" stroke-width="30" stroke="black" d="M569.35 892.852C569.35 892.852 725.895 816.562 836.702 811.812C947.509 807.063 1030.9 925.12 1030.9 925.12"></path>
<path stroke-width="3" stroke="black" fill="black" d="M931.951 963.933L931.95 963.933C931.175 963.244 930.106 962.63 929.014 962.077C928.055 961.592 926.983 961.107 925.932 960.633C925.767 960.558 925.602 960.484 925.439 960.409L925.439 960.409L925.429 960.405C921.535 958.675 917.855 958.054 914.276 958.663C910.704 959.271 907.389 961.077 904.174 963.933L904.093 964.005L904.023 964.089C902.173 966.287 900.811 968.07 899.944 970.059C899.059 972.087 898.734 974.217 898.734 977.061C898.734 979.893 899.057 982.287 899.928 984.442C900.806 986.613 902.198 988.434 904.174 990.19L904.174 990.19C905.459 991.332 906.793 992.516 909.493 993.716C910.936 994.368 912.659 994.664 914.097 994.808C915.555 994.954 916.849 994.954 917.48 994.954H917.487C922.749 994.954 926.726 993.742 931.838 990.314L932.015 990.196L932.151 990.032C933.978 987.855 935.328 986.082 936.189 984.092C937.066 982.065 937.39 979.925 937.39 977.061C937.39 974.229 937.068 971.836 936.197 969.681C935.318 967.51 933.926 965.689 931.951 963.933Z"></path>
<path stroke-width="3" stroke="black" fill="black" d="M866.58 925.962L866.569 925.952L866.558 925.942C858.508 918.846 846.435 918.846 838.385 925.942L838.385 925.942C837.99 926.291 837.62 926.703 837.275 927.093C837.228 927.146 837.181 927.199 837.134 927.252C836.82 927.608 836.498 927.973 836.12 928.363C835.268 929.241 834.135 930.243 832.401 931.255L832.058 931.455L831.859 931.799C830.394 934.334 830.394 936.911 830.395 939.035C830.395 939.073 830.395 939.11 830.395 939.147C830.395 941.012 830.757 942.298 831.125 943.26C831.214 943.491 831.301 943.7 831.376 943.877L831.396 943.923C831.464 944.086 831.517 944.21 831.561 944.326C831.649 944.554 831.657 944.628 831.658 944.632C831.659 948.612 834.587 951.19 835.836 952.289C835.86 952.31 835.884 952.331 835.907 952.351L835.986 952.421L836.074 952.479C841.296 955.92 845.32 957.138 850.601 957.138C852.602 957.138 855.227 956.843 857.853 956.115C860.467 955.389 863.193 954.204 865.295 952.352L865.295 952.351L865.34 952.312C865.938 951.784 866.628 951.177 867.161 950.545C867.566 950.066 868.005 949.433 868.19 948.672C869.994 946.965 870.974 945.22 871.487 943.564C872.022 941.836 872.022 940.276 872.022 939.189V939.147C872.022 937.281 871.66 935.996 871.291 935.034C871.202 934.802 871.115 934.594 871.04 934.417L871.021 934.37C870.952 934.208 870.9 934.084 870.855 933.968C870.771 933.751 870.76 933.673 870.759 933.662C870.804 929.796 867.985 927.238 866.753 926.12C866.691 926.064 866.633 926.011 866.58 925.962Z"></path>
<path stroke-width="3" stroke="black" fill="black" d="M884.437 1189.61L884.546 1189.7L884.672 1189.78C888.563 1192.03 895.033 1194.35 900.37 1194.35C903.556 1194.35 906.211 1194.06 908.59 1193.32C910.991 1192.56 913.038 1191.36 915.042 1189.61L915.124 1189.53L915.195 1189.45C917.126 1187.19 918.48 1185.15 919.343 1183.05C920.212 1180.94 920.553 1178.84 920.553 1176.52C920.553 1174.66 920.19 1173.39 919.821 1172.43C919.733 1172.2 919.646 1172 919.571 1171.82L919.551 1171.78C919.483 1171.62 919.431 1171.49 919.386 1171.38C919.302 1171.16 919.292 1171.09 919.291 1171.08V1171.08L919.291 1171.06C919.231 1167.09 916.204 1164.49 914.972 1163.45L914.456 1163.02L913.944 1163.09C913.923 1163.08 913.877 1163.04 913.748 1162.93C913.739 1162.92 913.73 1162.91 913.72 1162.9C913.579 1162.78 913.312 1162.54 912.968 1162.35C912.876 1162.3 912.782 1162.25 912.684 1162.21C912.681 1162.21 912.678 1162.2 912.675 1162.2C912.326 1161.59 911.712 1161.09 910.846 1160.94C910.687 1160.83 910.484 1160.69 910.249 1160.55C909.814 1160.29 909.148 1159.96 908.379 1159.84C906.81 1158.68 905.155 1158.68 903.065 1158.69C902.976 1158.69 902.886 1158.69 902.796 1158.69C900.201 1158.69 896.967 1158.97 893.887 1159.68C890.843 1160.39 887.767 1161.55 885.646 1163.43C885.632 1163.44 885.618 1163.45 885.604 1163.47C885.007 1163.99 884.318 1164.59 883.785 1165.21C883.382 1165.69 882.942 1166.32 882.755 1167.07C880.955 1168.76 879.974 1170.49 879.461 1172.13C878.926 1173.85 878.926 1175.4 878.926 1176.47L878.926 1176.52C878.926 1179.34 879.252 1181.73 880.136 1183.88C881.027 1186.04 882.437 1187.86 884.437 1189.61Z"></path>
<path stroke-width="3" stroke="black" fill="black" d="M774.64 1135.47L774.75 1135.57L774.875 1135.64C778.861 1137.89 785.486 1140.2 790.942 1140.2C797.542 1140.2 801.763 1139.04 805.951 1135.47L806.034 1135.4L806.105 1135.32C808.085 1133.06 809.474 1131.02 810.36 1128.92C811.254 1126.8 811.604 1124.7 811.604 1122.37C811.604 1120.51 811.231 1119.23 810.852 1118.28C810.761 1118.05 810.671 1117.84 810.594 1117.66L810.574 1117.62C810.504 1117.46 810.451 1117.34 810.405 1117.22C810.324 1117.02 810.311 1116.94 810.31 1116.93V1116.93L810.31 1116.92C810.248 1112.93 807.135 1110.32 805.879 1109.29L805.369 1108.87L804.854 1108.95C804.849 1108.95 804.847 1108.95 804.846 1108.95C804.845 1108.95 804.844 1108.95 804.844 1108.95C804.844 1108.95 804.845 1108.95 804.844 1108.95C804.826 1108.94 804.793 1108.92 804.623 1108.77C804.614 1108.76 804.605 1108.75 804.595 1108.74C804.45 1108.62 804.179 1108.38 803.83 1108.2C803.734 1108.15 803.635 1108.1 803.532 1108.06C803.528 1108.05 803.525 1108.05 803.521 1108.04C803.159 1107.42 802.533 1106.94 801.66 1106.79C801.496 1106.68 801.285 1106.54 801.04 1106.4C800.592 1106.14 799.911 1105.81 799.129 1105.69C797.532 1104.54 795.853 1104.54 793.704 1104.54C793.613 1104.54 793.522 1104.54 793.43 1104.54C790.773 1104.54 787.463 1104.83 784.309 1105.54C781.194 1106.24 778.048 1107.4 775.88 1109.27C775.866 1109.28 775.852 1109.3 775.838 1109.31C775.225 1109.83 774.519 1110.43 773.973 1111.06C773.563 1111.52 773.11 1112.15 772.916 1112.91C771.072 1114.6 770.065 1116.33 769.537 1117.98C768.986 1119.7 768.986 1121.25 768.986 1122.33L768.986 1122.37C768.986 1125.2 769.322 1127.59 770.23 1129.75C771.145 1131.91 772.592 1133.73 774.64 1135.47Z"></path>
<path stroke-width="3" stroke="black" fill="black" d="M649.702 1094.21L649.812 1094.3L649.938 1094.38C653.828 1096.63 660.299 1098.95 665.636 1098.95C668.822 1098.95 671.477 1098.67 673.856 1097.92C676.256 1097.16 678.304 1095.96 680.308 1094.21L680.39 1094.14L680.46 1094.05C682.391 1091.8 683.745 1089.75 684.608 1087.65C685.478 1085.54 685.819 1083.44 685.819 1081.12C685.819 1079.27 685.456 1077.99 685.087 1077.04C684.998 1076.81 684.911 1076.6 684.837 1076.42L684.817 1076.38C684.749 1076.22 684.696 1076.09 684.652 1075.98C684.568 1075.76 684.558 1075.69 684.557 1075.68V1075.68L684.557 1075.67C684.497 1071.69 681.47 1069.09 680.237 1068.05L679.722 1067.62L679.209 1067.69C679.189 1067.68 679.142 1067.64 679.013 1067.53C679.005 1067.52 678.996 1067.51 678.986 1067.5C678.845 1067.38 678.578 1067.14 678.233 1066.95C678.142 1066.9 678.047 1066.86 677.949 1066.82C677.946 1066.81 677.943 1066.81 677.94 1066.8C677.591 1066.19 676.977 1065.7 676.112 1065.54C675.953 1065.43 675.75 1065.29 675.514 1065.15C675.08 1064.89 674.414 1064.56 673.644 1064.44C672.075 1063.28 670.421 1063.29 668.33 1063.29C668.242 1063.29 668.152 1063.29 668.061 1063.29C665.466 1063.29 662.233 1063.57 659.152 1064.29C656.109 1064.99 653.032 1066.15 650.912 1068.03C650.898 1068.04 650.884 1068.05 650.87 1068.07C650.273 1068.59 649.584 1069.19 649.051 1069.82C648.648 1070.29 648.207 1070.92 648.02 1071.67C646.22 1073.36 645.24 1075.09 644.727 1076.74C644.191 1078.45 644.191 1080 644.191 1081.08L644.191 1081.12C644.191 1083.94 644.518 1086.33 645.402 1088.48C646.292 1090.65 647.703 1092.46 649.702 1094.21Z"></path>
<path stroke-width="3" stroke="black" fill="black" d="M727.946 999.669L728.056 999.765L728.182 999.838C732.072 1002.09 738.543 1004.41 743.88 1004.41C747.066 1004.41 749.721 1004.13 752.1 1003.38C754.5 1002.63 756.548 1001.42 758.552 999.669L758.634 999.597L758.705 999.514C760.635 997.257 761.989 995.213 762.852 993.113C763.722 990.998 764.063 988.901 764.063 986.578C764.063 984.727 763.7 983.451 763.331 982.496C763.243 982.267 763.155 982.06 763.081 981.885L763.061 981.839C762.993 981.678 762.94 981.555 762.896 981.441C762.812 981.225 762.802 981.151 762.801 981.145V981.138L762.801 981.127C762.741 977.152 759.714 974.548 758.481 973.512L757.966 973.079L757.453 973.153C757.433 973.14 757.386 973.104 757.257 972.989C757.249 972.981 757.24 972.973 757.23 972.965C757.089 972.838 756.822 972.599 756.477 972.412C756.386 972.362 756.291 972.317 756.193 972.277C756.19 972.272 756.188 972.266 756.185 972.261C755.835 971.651 755.221 971.157 754.356 971.004C754.197 970.888 753.994 970.75 753.759 970.611C753.324 970.355 752.658 970.021 751.889 969.899C750.32 968.745 748.665 968.747 746.575 968.749C746.486 968.749 746.396 968.749 746.306 968.749C743.71 968.749 740.477 969.034 737.396 969.747C734.353 970.452 731.277 971.615 729.156 973.491C729.142 973.503 729.128 973.516 729.114 973.528C728.517 974.05 727.828 974.652 727.295 975.277C726.892 975.75 726.451 976.378 726.264 977.135C724.464 978.825 723.484 980.554 722.971 982.197C722.435 983.911 722.435 985.459 722.436 986.536L722.436 986.578C722.436 989.402 722.762 991.79 723.646 993.94C724.537 996.106 725.947 997.921 727.946 999.669Z"></path>
<path stroke-width="3" stroke="black" fill="black" d="M595.228 1189.61L595.337 1189.7L595.463 1189.78C599.354 1192.03 605.824 1194.35 611.161 1194.35C614.347 1194.35 617.002 1194.06 619.381 1193.32C621.782 1192.56 623.829 1191.36 625.833 1189.61L625.915 1189.53L625.986 1189.45C627.917 1187.19 629.271 1185.15 630.134 1183.05C631.003 1180.94 631.344 1178.84 631.344 1176.52C631.344 1174.66 630.981 1173.39 630.612 1172.43C630.524 1172.2 630.437 1172 630.362 1171.82L630.342 1171.78C630.274 1171.62 630.222 1171.49 630.177 1171.38C630.093 1171.16 630.083 1171.09 630.082 1171.08V1171.08L630.082 1171.06C630.022 1167.09 626.995 1164.49 625.763 1163.45L625.247 1163.02L624.735 1163.09C624.714 1163.08 624.668 1163.04 624.539 1162.93C624.53 1162.92 624.521 1162.91 624.511 1162.9C624.37 1162.78 624.103 1162.54 623.759 1162.35C623.667 1162.3 623.573 1162.25 623.475 1162.21C623.472 1162.21 623.469 1162.2 623.466 1162.2C623.117 1161.59 622.503 1161.09 621.637 1160.94C621.478 1160.83 621.275 1160.69 621.04 1160.55C620.606 1160.29 619.939 1159.96 619.17 1159.84C617.601 1158.68 615.946 1158.68 613.856 1158.69C613.767 1158.69 613.677 1158.69 613.587 1158.69C610.992 1158.69 607.759 1158.97 604.678 1159.68C601.634 1160.39 598.558 1161.55 596.437 1163.43C596.423 1163.44 596.409 1163.45 596.395 1163.47C595.798 1163.99 595.109 1164.59 594.576 1165.21C594.173 1165.69 593.733 1166.32 593.546 1167.07C591.746 1168.76 590.765 1170.49 590.252 1172.13C589.717 1173.85 589.717 1175.4 589.717 1176.47L589.717 1176.52C589.717 1179.34 590.043 1181.73 590.927 1183.88C591.818 1186.04 593.228 1187.86 595.228 1189.61Z"></path>
<path stroke-width="3" stroke="black" fill="black" d="M963.507 1073.12L963.086 1072.76H962.531C962.506 1072.76 962.488 1072.76 962.478 1072.76C962.472 1072.76 962.468 1072.76 962.465 1072.76C962.45 1072.75 962.411 1072.72 962.261 1072.59C962.252 1072.58 962.243 1072.58 962.233 1072.57C962.092 1072.44 961.825 1072.21 961.48 1072.02C961.221 1071.89 960.938 1071.78 960.625 1071.73C960.464 1071.61 960.259 1071.48 960.021 1071.34C959.478 1071.02 958.58 1070.6 957.575 1070.6C957.47 1070.6 957.318 1070.57 957.014 1070.49C956.87 1070.44 956.715 1070.39 956.523 1070.33L956.495 1070.32C956.296 1070.26 956.067 1070.19 955.814 1070.11C954.808 1069.82 953.487 1069.53 951.569 1069.51C947.822 1068.47 943.919 1068.39 941.075 1069.52C939.555 1069.6 938.143 1070.25 937.031 1070.93C935.826 1071.66 934.814 1072.53 934.189 1073.09C934.177 1073.1 934.166 1073.11 934.154 1073.12C933.556 1073.63 932.866 1074.22 932.331 1074.84C931.931 1075.3 931.487 1075.92 931.295 1076.67C929.495 1078.33 928.512 1080.03 927.995 1081.65C927.457 1083.34 927.457 1084.86 927.457 1085.92L927.457 1085.96C927.457 1088.74 927.785 1091.09 928.673 1093.21C929.568 1095.35 930.983 1097.13 932.985 1098.85L933.064 1098.92L933.152 1098.97C938.373 1102.32 942.392 1103.5 947.663 1103.5C954.113 1103.5 958.245 1102.36 962.341 1098.85C966.384 1095.38 967.755 1091.87 968.987 1088.62L969.084 1088.36V1088.09V1085.97C969.084 1084.14 968.719 1082.88 968.348 1081.94C968.259 1081.71 968.172 1081.51 968.097 1081.34L968.077 1081.29C968.009 1081.13 967.957 1081.01 967.912 1080.9C967.836 1080.71 967.823 1080.64 967.821 1080.63V1080.62L967.821 1080.61C967.762 1076.76 964.779 1074.21 963.583 1073.19C963.557 1073.17 963.531 1073.14 963.507 1073.12Z"></path>
<path stroke-width="3" stroke="black" fill="black" d="M581.517 968.729L581.373 968.831L581.256 968.964C579.371 971.114 577.978 972.863 577.09 974.818C576.182 976.815 575.85 978.913 575.85 981.706C575.85 984.485 576.179 986.841 577.073 988.962C577.973 991.098 579.398 992.883 581.411 994.6L581.49 994.667L581.578 994.723C586.829 998.071 590.869 999.251 596.168 999.251C598.212 999.251 599.611 998.954 600.665 998.651C600.92 998.577 601.152 998.504 601.354 998.44L601.408 998.423C601.591 998.365 601.74 998.318 601.879 998.277C602.189 998.187 602.334 998.168 602.425 998.168C606.742 998.168 609.593 995.736 610.891 994.629L610.925 994.6L611.008 994.529L611.08 994.447C612.965 992.297 614.358 990.548 615.246 988.593C616.154 986.596 616.486 984.498 616.486 981.706C616.486 978.926 616.157 976.571 615.263 974.449C614.363 972.313 612.938 970.528 610.925 968.811L610.876 968.769L610.823 968.731C606.776 965.845 601.442 964.452 596.186 964.452C590.93 964.452 585.586 965.845 581.517 968.729Z"></path>
</svg>
