<svg xmlns="http://www.w3.org/2000/svg" fill="none" viewBox="0 0 1600 1600" height="1600" width="1600">
<path fill="black" d="M360.405 567.789L336.496 484L312.587 567.789C308.925 580.619 302.536 591.786 293.888 600.791C285.423 609.604 274.788 616.328 262.404 620.545L184 646.503L261.68 672.165C274.345 676.343 285.244 683.18 293.893 692.191C302.542 701.205 308.921 712.363 312.593 725.199L336.501 809L360.41 725.199C364.066 712.376 370.446 701.218 379.109 692.198C387.773 683.177 398.659 676.35 411.331 672.163L489 646.501L411.331 620.823C398.66 616.653 387.774 609.808 379.109 600.797C370.446 591.783 364.065 580.619 360.41 567.789L360.405 567.789Z"></path>
<path fill="black" d="M1275.22 313.38L1262 267L1248.78 313.38C1246.26 322.232 1241.83 329.964 1235.84 336.204C1229.85 342.453 1222.32 347.205 1213.59 350.079L1170 364.5L1213.59 378.921C1222.31 381.798 1229.85 386.541 1235.84 392.79C1241.83 399.032 1246.26 406.771 1248.78 415.629L1262 462L1275.22 415.629C1277.73 406.768 1282.17 399.038 1288.15 392.796C1294.15 386.538 1301.68 381.811 1310.41 378.921L1354 364.5L1310.41 350.079C1301.69 347.202 1294.15 342.453 1288.15 336.21C1282.16 329.953 1277.74 322.223 1275.22 313.377V313.38Z"></path>
<path fill="black" d="M1204.22 1196.38L1191 1150L1177.78 1196.38C1175.26 1205.23 1170.83 1212.96 1164.84 1219.2C1158.85 1225.45 1151.32 1230.2 1142.59 1233.08L1099 1247.5L1142.59 1261.92C1151.31 1264.8 1158.85 1269.54 1164.84 1275.79C1170.83 1282.03 1175.26 1289.77 1177.78 1298.63L1191 1345L1204.22 1298.63C1206.73 1289.77 1211.17 1282.04 1217.15 1275.8C1223.15 1269.54 1230.68 1264.81 1239.41 1261.92L1283 1247.5L1239.41 1233.08C1230.69 1230.2 1223.15 1225.45 1217.15 1219.21C1211.16 1212.95 1206.74 1205.22 1204.22 1196.38V1196.38Z"></path>
<path fill="black" d="M297.218 1212.38L283.995 1166L270.782 1212.38C268.257 1221.23 263.834 1228.96 257.839 1235.2C251.854 1241.45 244.321 1246.2 235.586 1249.08L192 1263.5L235.586 1277.92C244.306 1280.8 251.846 1285.54 257.839 1291.79C263.834 1298.03 268.257 1305.77 270.782 1314.63L283.995 1361L297.218 1314.63C299.734 1305.77 304.166 1298.04 310.152 1291.8C316.154 1285.54 323.679 1280.81 332.414 1277.92L376 1263.5L332.414 1249.08C323.688 1246.2 316.146 1241.45 310.152 1235.21C304.157 1228.95 299.743 1221.22 297.218 1212.38V1212.38Z"></path>
<path fill="black" d="M1260.01 1020H1276.01V828H1260.01C1220.12 828 336.885 866.385 299.312 868.016L284 868.672V979.312L299.312 979.984C336.88 981.614 1220.11 1020 1260.01 1020ZM1244.01 987.599C1162.01 984.927 806.365 969.807 556.005 959.036V888.957C806.365 878.207 1162.01 863.072 1244.01 860.395V987.599ZM316.005 899.328C347.703 897.953 425.667 894.578 524.005 890.338V957.666C425.667 953.427 347.699 950.052 316.005 948.677V899.328Z"></path>
<path fill="black" d="M1284.01 828.333H1316.01V1019.67H1284.01V828.333Z"></path>
<path fill="black" d="M1060.01 708C1024.71 708 996.006 679.297 996.006 644C996.006 608.703 1024.71 580 1060.01 580H1140.01C1192.95 580 1236.01 536.943 1236.01 484C1236.01 431.057 1192.95 388 1140.01 388H1060.01V420H1140.01C1175.3 420 1204.01 448.703 1204.01 484C1204.01 519.297 1175.3 548 1140.01 548H1060.01C1007.06 548 964.006 591.057 964.006 644C964.006 696.943 1007.06 740 1060.01 740H1220.01C1255.3 740 1284.01 768.703 1284.01 804H1316.01C1316.01 751.057 1272.95 708 1220.01 708H1060.01Z"></path>
<path stroke-linecap="round" stroke-width="30" stroke="black" d="M1104 859.5L1053.5 991"></path>
<path stroke-linecap="round" stroke-width="30" stroke="black" d="M910 861.5L864 985"></path>
<path stroke-linecap="round" stroke-width="30" stroke="black" d="M736 873.5L699 984"></path>
</svg>
