<svg xmlns="http://www.w3.org/2000/svg" fill="none" viewBox="0 0 1600 1600" height="1600" width="1600">
<path fill="black" d="M577.715 329.006C501.903 328.982 426.427 358.585 368.666 417.244C253.111 534.684 253.111 724.071 368.666 841.506L398.107 871.286L783.068 1262.83L783.074 1262.83C787.51 1267.41 793.62 1270 800.003 1270C806.381 1270 812.49 1267.41 816.932 1262.83L1201.89 871.28L1231.33 841.5C1346.89 724.066 1346.89 534.673 1231.33 417.238C1173.58 358.578 1097.73 328.975 1021.91 329C946.13 329.024 870.63 358.531 812.863 417.238L799.981 430.103L787.098 417.238C729.33 358.529 653.464 329.036 577.676 329L577.715 329.006ZM577.715 376.064C641.21 376.089 704.692 400.585 753.643 450.331L783.083 480.111H783.089C787.513 484.58 793.544 487.091 799.83 487.091C806.123 487.091 812.153 484.58 816.577 480.111L846.39 450.331C895.341 400.585 958.452 376.089 1021.94 376.064C1085.41 376.04 1148.91 400.61 1197.87 450.331C1295.74 549.793 1295.74 708.954 1197.87 808.428L1168.43 838.208H1168.43C1168.3 838.202 1168.18 838.202 1168.06 838.208L800.018 1212.85L431.617 838.208L402.177 808.428C304.306 708.967 304.306 549.805 402.177 450.331C451.134 400.61 514.269 376.046 577.731 376.064H577.715ZM797.434 658.05C791.58 658.694 786.182 661.503 782.3 665.924C778.418 670.35 776.33 676.065 776.458 681.944V776.062H682.239C681.503 776.032 680.767 776.032 680.03 776.062C671.62 776.458 664.05 781.309 660.186 788.788C656.322 796.26 656.742 805.233 661.288 812.317C665.84 819.4 673.824 823.516 682.239 823.121H776.458V917.245C776.367 923.538 778.813 929.612 783.237 934.099C787.668 938.58 793.71 941.109 800.015 941.109C806.321 941.109 812.363 938.58 816.787 934.099C821.217 929.612 823.658 923.538 823.566 917.245V823.127H917.785V823.121C924.09 823.212 930.163 820.768 934.654 816.348C939.139 811.928 941.664 805.89 941.664 799.591C941.664 793.298 939.139 787.261 934.654 782.84C930.163 778.42 924.09 775.976 917.785 776.061H823.566V681.943C823.712 675.17 820.931 668.658 815.923 664.079C810.921 659.501 804.185 657.306 797.436 658.048L797.434 658.05Z"></path>
<path fill="black" d="M1389.4 249.789L1365.5 166L1341.59 249.789C1337.92 262.619 1331.54 273.786 1322.89 282.791C1314.42 291.604 1303.79 298.328 1291.4 302.545L1213 328.503L1290.68 354.165C1303.35 358.343 1314.24 365.18 1322.89 374.191C1331.54 383.205 1337.92 394.363 1341.59 407.199L1365.5 491L1389.41 407.199C1393.07 394.376 1399.45 383.218 1408.11 374.198C1416.77 365.177 1427.66 358.35 1440.33 354.163L1518 328.501L1440.33 302.823C1427.66 298.653 1416.77 291.808 1408.11 282.797C1399.45 273.783 1393.07 262.619 1389.41 249.789L1389.4 249.789Z"></path>
<path fill="black" d="M571.218 1218.38L557.995 1172L544.782 1218.38C542.257 1227.23 537.834 1234.96 531.839 1241.2C525.854 1247.45 518.321 1252.2 509.586 1255.08L466 1269.5L509.586 1283.92C518.306 1286.8 525.846 1291.54 531.839 1297.79C537.834 1304.03 542.257 1311.77 544.782 1320.63L557.995 1367L571.218 1320.63C573.734 1311.77 578.166 1304.04 584.152 1297.8C590.154 1291.54 597.679 1286.81 606.414 1283.92L650 1269.5L606.414 1255.08C597.688 1252.2 590.146 1247.45 584.152 1241.21C578.157 1234.95 573.743 1227.22 571.218 1218.38V1218.38Z"></path>
<path fill="black" d="M1226.22 928.38L1213 882L1199.78 928.38C1197.26 937.232 1192.83 944.964 1186.84 951.204C1180.85 957.453 1173.32 962.205 1164.59 965.079L1121 979.5L1164.59 993.921C1173.31 996.798 1180.85 1001.54 1186.84 1007.79C1192.83 1014.03 1197.26 1021.77 1199.78 1030.63L1213 1077L1226.22 1030.63C1228.73 1021.77 1233.17 1014.04 1239.15 1007.8C1245.15 1001.54 1252.68 996.811 1261.41 993.921L1305 979.5L1261.41 965.079C1252.69 962.202 1245.15 957.453 1239.15 951.21C1233.16 944.953 1228.74 937.223 1226.22 928.377V928.38Z"></path>
<path fill="black" d="M387.218 1025.38L373.995 979L360.782 1025.38C358.257 1034.23 353.834 1041.96 347.839 1048.2C341.854 1054.45 334.321 1059.2 325.586 1062.08L282 1076.5L325.586 1090.92C334.306 1093.8 341.846 1098.54 347.839 1104.79C353.834 1111.03 358.257 1118.77 360.782 1127.63L373.995 1174L387.218 1127.63C389.734 1118.77 394.166 1111.04 400.152 1104.8C406.154 1098.54 413.679 1093.81 422.414 1090.92L466 1076.5L422.414 1062.08C413.688 1059.2 406.146 1054.45 400.152 1048.21C394.157 1041.95 389.743 1034.22 387.218 1025.38V1025.38Z"></path>
</svg>
