<svg xmlns="http://www.w3.org/2000/svg" fill="none" viewBox="0 0 1600 1600" height="1600" width="1600">
<g clip-path="url(#clip0_2509_2)">
<path fill="black" d="M899.055 1089.95V899.013H1090.13C1103.19 899.013 1113.78 888.425 1113.78 875.368V724.608C1113.78 711.55 1103.19 700.962 1090.13 700.962H899.055V510.029C899.055 496.972 888.466 486.384 875.409 486.384H724.609C711.552 486.384 700.964 496.972 700.964 510.029V700.962H509.817C496.76 700.962 486.172 711.551 486.172 724.608V875.368C486.172 888.425 496.76 899.013 509.817 899.013H700.964V1089.95C700.964 1103 711.552 1113.59 724.609 1113.59H875.409C888.472 1113.59 899.055 1103 899.055 1089.95ZM851.763 875.373V1066.31H748.252V875.373C748.252 862.316 737.663 851.728 724.607 851.728H533.46V748.258H724.607C737.664 748.258 748.252 737.67 748.252 724.613V533.68H851.763V724.613C851.763 737.671 862.351 748.258 875.408 748.258H1066.49V851.728L875.408 851.733C862.345 851.733 851.763 862.317 851.763 875.373Z"></path>
<path fill="black" d="M798.799 1411.81C801.68 1413.25 804.827 1414 807.975 1414C811.122 1414 814.27 1413.25 817.151 1411.81C941.179 1349.61 1045.27 1264.26 1126.5 1158.16C1224.13 1030.57 1260.83 907.714 1282.72 834.313C1325.34 691.403 1340.44 541.609 1327.53 389.003C1326.68 378.921 1318.51 370.919 1308.43 370.28C1224.89 364.999 1142.57 348.249 1063.84 320.457C976.238 289.571 896.594 246.629 820.353 189.121C813.045 183.626 803.016 183.626 795.653 189.121C719.42 246.625 639.77 289.567 552.171 320.457C473.377 348.249 391.109 364.999 307.574 370.28C297.438 370.92 289.329 378.868 288.476 389.003C275.565 541.62 290.61 691.415 333.288 834.313C355.214 907.714 391.864 1030.56 489.502 1158.16C570.697 1264.26 674.77 1349.62 798.81 1411.81H798.799ZM327.905 409.863C409.1 403.195 489.069 386.125 565.787 359.08C651.41 328.887 732.813 285.786 807.926 230.952C883.04 285.79 964.447 328.891 1050.07 359.08C1126.78 386.125 1206.76 403.195 1287.95 409.863C1297.92 551.27 1282.93 690.026 1243.35 822.592C1220.89 897.86 1186.91 1011.65 1093.87 1133.27C1018.55 1231.79 922.352 1311.6 807.974 1370.54C693.597 1311.59 597.406 1231.79 521.985 1133.27C428.893 1011.64 394.963 897.859 372.509 822.592C332.978 690.083 317.988 551.339 327.909 409.863H327.905Z"></path>
<path fill="black" d="M176.405 50.7893L152.496 -33L128.587 50.7893C124.925 63.6195 118.536 74.7859 109.888 83.7911C101.423 92.6038 90.7885 99.3281 78.4041 103.545L0 129.503L77.6802 155.165C90.3451 159.343 101.244 166.18 109.893 175.191C118.542 184.205 124.921 195.363 128.593 208.199L152.501 292L176.41 208.199C180.066 195.376 186.446 184.218 195.109 175.198C203.773 166.177 214.659 159.35 227.331 155.163L305 129.501L227.331 103.823C214.66 99.6534 203.774 92.8082 195.109 83.7968C186.446 74.7831 180.065 63.6189 176.41 50.7888L176.405 50.7893Z"></path>
<path fill="black" d="M1452.22 1198.38L1439 1152L1425.78 1198.38C1423.26 1207.23 1418.83 1214.96 1412.84 1221.2C1406.85 1227.45 1399.32 1232.2 1390.59 1235.08L1347 1249.5L1390.59 1263.92C1399.31 1266.8 1406.85 1271.54 1412.84 1277.79C1418.83 1284.03 1423.26 1291.77 1425.78 1300.63L1439 1347L1452.22 1300.63C1454.73 1291.77 1459.17 1284.04 1465.15 1277.8C1471.15 1271.54 1478.68 1266.81 1487.41 1263.92L1531 1249.5L1487.41 1235.08C1478.69 1232.2 1471.15 1227.45 1465.15 1221.21C1459.16 1214.95 1454.74 1207.22 1452.22 1198.38V1198.38Z"></path>
<path fill="black" d="M226.214 1344.37L213.001 1298L199.779 1344.37C197.263 1353.23 192.831 1360.96 186.846 1367.2C180.843 1373.46 173.319 1378.19 164.584 1381.07L121 1395.5L164.584 1409.92C173.31 1412.8 180.843 1417.54 186.846 1423.79C192.84 1430.05 197.254 1437.78 199.779 1446.62L213.001 1493L226.214 1446.62C228.739 1437.77 233.162 1430.04 239.156 1423.8C245.15 1417.54 252.683 1412.8 261.409 1409.92L305 1395.5L261.409 1381.07C252.69 1378.2 245.15 1373.46 239.156 1367.21C233.162 1360.97 228.739 1353.23 226.214 1344.37V1344.37Z"></path>
</g>
<defs>
<clipPath id="clip0_2509_2">
<rect fill="white" height="1600" width="1600"></rect>
</clipPath>
</defs>
</svg>
