<svg xmlns="http://www.w3.org/2000/svg" fill="none" viewBox="0 0 1600 1600" height="1600" width="1600">
<path fill="black" d="M1366.47 549.755V547.211C1366.47 547.211 1366.47 544.668 1363.93 544.668C1363.93 544.668 1363.93 542.125 1361.38 542.125C1282.49 425.049 1147.61 313.085 964.379 206.199C913.481 175.66 852.404 185.841 806.596 229.105C804.052 231.649 798.962 231.649 798.962 231.649C796.419 231.649 793.871 231.649 791.328 229.105C748.064 185.841 684.443 175.665 636.09 203.657C468.127 282.546 335.792 394.523 239.086 537.037C239.086 537.037 239.086 539.581 236.543 539.581C236.543 542.124 234 544.671 234 544.671V547.214V549.758V552.301V554.844V557.387V559.93C274.716 768.622 394.328 872.963 496.124 926.406V934.039C496.124 1102 633.548 1239.43 801.511 1239.43H814.235C814.235 1269.97 821.869 1300.51 837.142 1328.5C867.681 1381.94 921.122 1412.48 982.2 1412.48C1043.28 1412.48 1096.72 1381.94 1127.26 1328.5C1157.8 1275.06 1157.8 1211.43 1127.26 1160.53L1073.82 1066.37C1094.18 1025.66 1104.36 979.844 1104.36 936.583V918.768C1257.05 839.878 1351.21 710.087 1366.48 559.938V557.395V554.852C1366.48 552.3 1366.48 549.757 1366.48 549.757L1366.47 549.755ZM1295.21 559.932C1234.13 610.83 1167.97 651.546 1101.8 682.087V483.585C1170.51 501.4 1234.14 526.849 1295.21 559.932ZM496.116 867.864C404.502 811.875 338.333 730.44 302.705 626.099C363.784 671.906 429.949 710.079 496.116 738.074V867.864ZM496.116 682.087C429.951 651.547 363.782 610.831 302.705 559.932C363.784 526.849 429.949 501.4 496.116 481.042V682.087ZM834.587 1157.98C829.497 1168.16 824.406 1178.34 821.863 1185.97H798.957C658.988 1185.97 547.012 1071.45 547.012 931.484V468.314C712.43 427.597 888.028 427.597 1053.45 468.314V717.713V720.256V931.482C1053.45 956.931 1048.36 982.38 1043.26 1005.29L1002.55 941.66C997.458 934.026 989.824 928.935 979.642 928.935C969.461 928.935 961.827 934.026 956.736 941.66L834.587 1157.98ZM1083.99 1183.43C1104.34 1219.06 1104.34 1264.87 1083.99 1300.5C1063.63 1336.13 1025.46 1359.03 982.191 1359.03C938.927 1359.03 900.753 1336.12 880.395 1300.5C860.037 1264.86 860.037 1219.06 880.395 1183.43L982.191 1007.83L1083.99 1183.43ZM343.423 483.585C427.403 386.88 531.745 310.532 656.445 252H658.988C689.532 231.642 727.705 239.275 755.697 264.724C768.421 277.449 783.689 282.54 798.961 282.54C814.228 282.54 832.044 274.906 842.225 264.724C870.217 236.733 908.391 231.642 938.93 249.457C1068.72 323.261 1170.52 402.151 1246.86 478.497C961.834 356.343 628.453 358.887 343.425 483.584L343.423 483.585ZM1104.35 857.684V738.074C1173.06 710.083 1239.23 669.361 1302.85 621.009C1272.31 715.171 1203.6 799.152 1104.35 857.684Z"></path>
<path fill="black" d="M798.957 529.396C783.69 529.396 773.508 539.577 773.508 554.844V964.572C773.508 979.839 783.689 990.021 798.957 990.021C814.224 990.021 824.406 979.84 824.406 964.572V554.844C824.406 542.12 814.224 529.396 798.957 529.396Z"></path>
<path fill="black" d="M176.405 843.789L152.496 760L128.587 843.789C124.925 856.619 118.536 867.786 109.888 876.791C101.423 885.604 90.7885 892.328 78.4041 896.545L0 922.503L77.6802 948.165C90.3451 952.343 101.244 959.18 109.893 968.191C118.542 977.205 124.921 988.363 128.593 1001.2L152.501 1085L176.41 1001.2C180.066 988.376 186.446 977.218 195.109 968.198C203.773 959.177 214.659 952.35 227.331 948.163L305 922.501L227.331 896.823C214.66 892.653 203.774 885.808 195.109 876.797C186.446 867.783 180.065 856.619 176.41 843.789L176.405 843.789Z"></path>
<path fill="black" d="M1379.22 1220.38L1366 1174L1352.78 1220.38C1350.26 1229.23 1345.83 1236.96 1339.84 1243.2C1333.85 1249.45 1326.32 1254.2 1317.59 1257.08L1274 1271.5L1317.59 1285.92C1326.31 1288.8 1333.85 1293.54 1339.84 1299.79C1345.83 1306.03 1350.26 1313.77 1352.78 1322.63L1366 1369L1379.22 1322.63C1381.73 1313.77 1386.17 1306.04 1392.15 1299.8C1398.15 1293.54 1405.68 1288.81 1414.41 1285.92L1458 1271.5L1414.41 1257.08C1405.69 1254.2 1398.15 1249.45 1392.15 1243.21C1386.16 1236.95 1381.74 1229.22 1379.22 1220.38V1220.38Z"></path>
<path fill="black" d="M410.218 1131.38L396.995 1085L383.782 1131.38C381.257 1140.23 376.834 1147.96 370.839 1154.2C364.854 1160.45 357.321 1165.2 348.586 1168.08L305 1182.5L348.586 1196.92C357.306 1199.8 364.846 1204.54 370.839 1210.79C376.834 1217.03 381.257 1224.77 383.782 1233.63L396.995 1280L410.218 1233.63C412.734 1224.77 417.166 1217.04 423.152 1210.8C429.154 1204.54 436.679 1199.81 445.414 1196.92L489 1182.5L445.414 1168.08C436.688 1165.2 429.146 1160.45 423.152 1154.21C417.157 1147.95 412.743 1140.22 410.218 1131.38V1131.38Z"></path>
<path fill="black" d="M1287.22 846.38L1274 800L1260.78 846.38C1258.26 855.232 1253.83 862.964 1247.84 869.204C1241.85 875.453 1234.32 880.205 1225.59 883.079L1182 897.5L1225.59 911.921C1234.31 914.798 1241.85 919.541 1247.84 925.79C1253.83 932.032 1258.26 939.771 1260.78 948.629L1274 995L1287.22 948.629C1289.73 939.768 1294.17 932.038 1300.15 925.796C1306.15 919.538 1313.68 914.811 1322.41 911.921L1366 897.5L1322.41 883.079C1313.69 880.202 1306.15 875.453 1300.15 869.21C1294.16 862.953 1289.74 855.223 1287.22 846.377V846.38Z"></path>
</svg>
