<svg xmlns="http://www.w3.org/2000/svg" fill="none" viewBox="0 0 1600 1600" height="1600" width="1600">
<path fill="black" d="M196.405 579.789L172.496 496L148.587 579.789C144.925 592.619 138.536 603.786 129.888 612.791C121.423 621.604 110.788 628.328 98.4041 632.545L20 658.503L97.6802 684.165C110.345 688.343 121.244 695.18 129.893 704.191C138.542 713.205 144.921 724.363 148.593 737.199L172.501 821L196.41 737.199C200.066 724.376 206.446 713.218 215.109 704.198C223.773 695.177 234.659 688.35 247.331 684.163L325 658.501L247.331 632.823C234.66 628.653 223.774 621.808 215.109 612.797C206.446 603.783 200.065 592.619 196.41 579.789L196.405 579.789Z"></path>
<path fill="black" d="M1216.22 212.38L1203 166L1189.78 212.38C1187.26 221.232 1182.83 228.964 1176.84 235.204C1170.85 241.453 1163.32 246.205 1154.59 249.079L1111 263.5L1154.59 277.921C1163.31 280.798 1170.85 285.541 1176.84 291.79C1182.83 298.032 1187.26 305.771 1189.78 314.629L1203 361L1216.22 314.629C1218.73 305.768 1223.17 298.038 1229.15 291.796C1235.15 285.538 1242.68 280.811 1251.41 277.921L1295 263.5L1251.41 249.079C1242.69 246.202 1235.15 241.453 1229.15 235.21C1223.16 228.953 1218.74 221.223 1216.22 212.377V212.38Z"></path>
<path fill="black" d="M1249.21 1036.37L1236 990L1222.78 1036.37C1220.26 1045.23 1215.83 1052.96 1209.85 1059.2C1203.84 1065.46 1196.32 1070.19 1187.58 1073.07L1144 1087.5L1187.58 1101.92C1196.31 1104.8 1203.84 1109.54 1209.85 1115.79C1215.84 1122.05 1220.25 1129.78 1222.78 1138.62L1236 1185L1249.21 1138.62C1251.74 1129.77 1256.16 1122.04 1262.16 1115.8C1268.15 1109.54 1275.68 1104.8 1284.41 1101.92L1328 1087.5L1284.41 1073.07C1275.69 1070.2 1268.15 1065.46 1262.16 1059.21C1256.16 1052.97 1251.74 1045.23 1249.21 1036.37V1036.37Z"></path>
<path fill="black" d="M618.593 859.527L643.55 715.067L770.355 512.792C782.488 493.414 785.133 469.913 777.619 448.352L733.372 321.12C711.08 262.473 624.59 290.991 641.843 351.619L678.291 468.103L599.126 588.05L467.723 604.23L374.296 503.539L394.19 393.836C404.564 327.668 307.616 309.911 294.614 376.432L274.012 500.89C270.476 522.205 276.304 543.981 289.946 560.624L418.061 716.986L350.282 836.593C337.812 858.602 332.912 884.535 336.501 909.612L383.268 1236.56C394.169 1303.71 492.35 1294.97 490.856 1226.49L478.867 947.422L495.741 933.159L580.041 1046.61L537.325 1218.64C528.814 1251.01 554.725 1284.53 588.123 1284.09C611.124 1284.09 632.352 1268.71 638.763 1245.46L689.778 1060.39C693.775 1045.91 692.673 1030.37 686.724 1016.62L618.604 859.515L618.593 859.527ZM654.705 1050.73L603.69 1235.8C597.635 1255.81 567.882 1248.22 572.626 1227.41L617.404 1047.04C618.719 1041.77 617.601 1036.17 614.35 1031.8L513.387 895.938C507.457 887.617 494.721 886.154 487.044 892.899L448.552 925.403C444.255 929.026 441.872 934.444 442.122 940.075L454.502 1228.05C455.4 1250.1 422.623 1253.94 419.28 1231.41L372.513 904.466C370.043 887.307 373.4 869.582 381.926 854.534L455.85 724.072C459.545 717.535 458.852 709.381 454.092 703.576L318.072 537.571C311.054 529.011 308.071 517.802 309.883 506.825L330.485 382.367C333.907 364 361.663 368.57 358.37 387.362L336.858 505.989C335.846 511.62 337.533 517.41 341.424 521.601L447.354 635.776C451.314 640.073 457.016 642.188 462.912 641.46L611.883 623.131C617.177 622.491 621.902 619.543 624.85 615.102L713.393 480.924C716.394 476.358 717.194 470.693 715.561 465.471L676.539 340.732C671.794 326.371 693.898 318.137 699.009 333.059L743.256 460.31C747.128 471.413 745.76 483.528 739.508 493.489L610.802 698.781C609.559 700.789 608.706 703.01 608.297 705.352L581.814 858.688C581.211 862.17 581.636 865.758 583.038 869.006L653.306 1031.08C655.989 1037.26 656.466 1044.23 654.693 1050.73L654.705 1050.73Z"></path>
<path fill="black" d="M527.379 573.605C577.557 573.605 618.393 532.541 618.393 482.076C614.104 360.936 440.641 360.965 436.363 482.076C436.363 532.538 477.201 573.602 527.377 573.602L527.379 573.605ZM527.379 426.923C599.421 428.825 599.406 535.336 527.379 537.228C455.341 535.326 455.357 428.815 527.379 426.923Z"></path>
<path fill="black" d="M1327.1 831.939L1301.47 684.695C1298.68 668.674 1291.49 653.79 1280.65 641.657L1188.43 538.278C1173.96 522.06 1152.46 513.765 1130.81 516.13L1026.39 527.479C997.311 528.093 974.856 559.244 956.581 578.031L906.774 476.981C869.484 405.788 763.76 458.212 797.576 531.353L894.236 727.856C907.074 754.028 938.525 764.779 964.75 752.085L966.827 774.696L812.453 894.73C790.179 912.066 775.527 938.087 772.237 966.097L745.807 1191.55C741.052 1225.82 770.07 1258.98 804.726 1258.64C834.033 1258.78 859.167 1238.17 864.032 1209.08L893.092 1035.01C895.828 1018.6 906.647 1004.94 922.008 998.511L951.136 986.326L964.281 1073.36C967.142 1092.32 975.346 1109.92 988.014 1124.29L1051.53 1196.35L1050.93 1250.75C1050.59 1281.37 1073.35 1306.72 1103.88 1309.67C1135.33 1313.43 1165.78 1287.77 1167.25 1255.99L1171.53 1194.01C1172.72 1176.73 1167.87 1159.41 1157.87 1145.27L1090.18 1049.52L1161.2 688.252L1188.64 727.559L1212.69 853.015C1228.69 927.425 1338.5 907.137 1327.1 831.932L1327.1 831.939ZM1287.37 854.853C1276.85 870.081 1251.39 864.573 1248.43 846.183L1223.65 716.914C1227.42 715.754 1167.05 634.895 1166.53 632.349C1157.98 619.355 1136.27 623.838 1133.76 639.26L1052.99 1050.16C1052.03 1055.03 1053.12 1060.09 1055.99 1064.16L1128.18 1166.28C1133.35 1173.6 1135.85 1182.57 1135.23 1191.52L1130.95 1253.49C1128.67 1281.3 1087.16 1279.14 1087.31 1251.15L1087.98 1189.76C1088.03 1185.27 1086.42 1180.92 1083.43 1177.54L1015.3 1100.24C1007.27 1091.13 1002.07 1079.97 1000.27 1067.95L983.648 957.838C982.208 946.428 969.113 939.081 958.639 943.772L907.965 964.962C880.986 976.258 862.013 1000.22 857.22 1029.03L828.16 1203.09C823.28 1232.6 778.505 1225.59 781.942 1195.79L808.372 970.335C810.521 951.935 820.168 934.845 834.802 923.443L997.024 797.298C1001.91 793.497 1004.54 787.457 1003.97 781.276L998.657 723.498C997.865 711.494 984.049 703.298 973.152 708.542L948.374 719.572C940.31 723.214 930.787 719.785 926.862 711.793L830.216 515.309C816.397 486.503 859.06 463.964 874.141 493.089L935.527 617.634C940.658 628.881 956.948 631.151 965.102 622.056L1011.05 573.228C1016.14 567.843 1022.98 564.444 1030.33 563.652L1134.75 552.304C1144.82 551.201 1154.61 555.039 1161.29 562.515L1253.51 665.894C1259.81 672.964 1264 681.611 1265.62 690.936L1291.25 838.181C1292.28 844.096 1290.9 850.01 1287.36 854.861L1287.37 854.853Z"></path>
<path fill="black" d="M1065.59 496.253C1184.96 492.001 1184.95 319.083 1065.59 314.853C946.239 319.116 946.287 492.023 1065.59 496.253ZM1065.59 351.23C1136.57 353.102 1136.54 458.023 1065.59 459.876C994.667 458.004 994.663 353.093 1065.59 351.23Z"></path>
</svg>
