<svg xmlns="http://www.w3.org/2000/svg" fill="none" viewBox="0 0 1600 1600" height="1600" width="1600">
<path fill="black" d="M1278.4 276.789L1254.5 193L1230.59 276.789C1226.92 289.619 1220.54 300.786 1211.89 309.791C1203.42 318.604 1192.79 325.328 1180.4 329.545L1102 355.503L1179.68 381.165C1192.35 385.343 1203.24 392.18 1211.89 401.191C1220.54 410.205 1226.92 421.363 1230.59 434.199L1254.5 518L1278.41 434.199C1282.07 421.376 1288.45 410.218 1297.11 401.198C1305.77 392.177 1316.66 385.35 1329.33 381.163L1407 355.501L1329.33 329.823C1316.66 325.653 1305.77 318.808 1297.11 309.797C1288.45 300.783 1282.07 289.619 1278.41 276.789L1278.4 276.789Z"></path>
<path fill="black" d="M363.218 1120.38L349.995 1074L336.782 1120.38C334.257 1129.23 329.834 1136.96 323.839 1143.2C317.854 1149.45 310.321 1154.2 301.586 1157.08L258 1171.5L301.586 1185.92C310.306 1188.8 317.846 1193.54 323.839 1199.79C329.834 1206.03 334.257 1213.77 336.782 1222.63L349.995 1269L363.218 1222.63C365.734 1213.77 370.166 1206.04 376.152 1199.8C382.154 1193.54 389.679 1188.81 398.414 1185.92L442 1171.5L398.414 1157.08C389.688 1154.2 382.146 1149.45 376.152 1143.21C370.157 1136.95 365.743 1129.22 363.218 1120.38V1120.38Z"></path>
<path fill="black" d="M1260.21 1157.37L1247 1111L1233.78 1157.37C1231.26 1166.23 1226.83 1173.96 1220.85 1180.2C1214.84 1186.46 1207.32 1191.19 1198.58 1194.07L1155 1208.5L1198.58 1222.92C1207.31 1225.8 1214.84 1230.54 1220.85 1236.79C1226.84 1243.05 1231.25 1250.78 1233.78 1259.62L1247 1306L1260.21 1259.62C1262.74 1250.77 1267.16 1243.04 1273.16 1236.8C1279.15 1230.54 1286.68 1225.8 1295.41 1222.92L1339 1208.5L1295.41 1194.07C1286.69 1191.2 1279.15 1186.46 1273.16 1180.21C1267.16 1173.97 1262.74 1166.23 1260.21 1157.37V1157.37Z"></path>
<path fill="black" d="M799.866 1171C743.971 1171 689.019 1168.71 640.804 1164.4C609.962 1161.71 584.774 1158.48 561.34 1154.31C550.432 1152.43 540.734 1150.41 531.843 1148.25L531.847 1148.25C524.004 1146.44 516.27 1144.2 508.68 1141.52C502.674 1139.59 496.891 1137.02 491.442 1133.85C486.764 1131.39 482.638 1128 479.319 1123.89L443.627 1077.04C440.378 1073.27 438.44 1068.55 438.103 1063.58L421 498.229V497.151V497.156C421.075 491.56 423.126 486.171 426.792 481.943C429.97 477.995 433.855 474.665 438.239 472.119C443.158 469.06 448.344 466.444 453.728 464.311C460.059 461.887 467.197 459.6 474.874 457.313C494.165 452.151 513.722 448.063 533.46 445.061C556.627 441.429 581.678 438.467 610.365 435.772C736.575 425.409 863.425 425.409 989.635 435.772C1018.32 438.463 1043.51 441.425 1066.54 445.061C1086.29 448.037 1105.85 452.125 1125.13 457.313C1133.34 459.6 1139.94 461.887 1146.27 464.311C1151.81 466.396 1157.13 469.012 1162.16 472.119C1166.55 474.665 1170.43 477.995 1173.61 481.943C1177.01 486.092 1178.91 491.258 1179 496.617V497.695L1161.76 1063.05C1161.48 1068 1159.59 1072.73 1156.37 1076.51L1120.68 1123.22V1123.21C1117.33 1127.3 1113.21 1130.68 1108.56 1133.18C1103.08 1136.3 1097.31 1138.87 1091.32 1140.85C1083.72 1143.49 1075.99 1145.73 1068.16 1147.58C1059.13 1149.74 1049.57 1151.75 1038.66 1153.64C1015.23 1157.81 989.904 1161.04 959.06 1163.73C910.846 1168.71 855.758 1171 799.863 1171L799.866 1171ZM500.598 1108C501.848 1109.27 503.303 1110.32 504.908 1111.1C508.968 1113.32 513.199 1115.22 517.565 1116.75C523.492 1118.77 530.091 1120.66 538.17 1122.68C546.25 1124.7 555.545 1126.58 565.914 1128.33C588.677 1132.37 613.19 1135.46 643.222 1138.16L643.226 1138.15C747.528 1146.5 852.335 1146.5 956.636 1138.15C986.673 1135.46 1010.51 1132.37 1033.81 1128.33C1044.18 1126.58 1053.21 1124.69 1061.56 1122.67C1068.53 1121.01 1075.41 1118.99 1082.17 1116.62C1086.85 1115.31 1091.37 1113.46 1095.63 1111.1C1097.21 1110.35 1098.63 1109.3 1099.81 1108L1103.85 1102.75C1094.15 1105.31 1083.65 1107.46 1071.39 1109.75C1044.45 1114.6 1016.44 1118.37 981.285 1121.46C861.034 1131.42 740.178 1131.42 619.927 1121.46C584.507 1118.37 555.952 1114.6 529.691 1109.75C517.301 1107.46 506.929 1105.18 497.366 1102.75L500.598 1108ZM465.042 1061.16H465.037C468.396 1063.97 472.166 1066.24 476.217 1067.89C483.784 1071.06 491.571 1073.66 499.52 1075.7C509.621 1078.39 520.529 1080.81 533.866 1083.23C559.322 1087.94 587.74 1091.58 621.678 1094.67V1094.68C740.268 1104.5 859.463 1104.5 978.052 1094.68C1012.53 1091.58 1040.41 1087.95 1065.86 1083.24C1079.33 1080.81 1090.11 1078.39 1100.34 1075.7L1100.35 1075.7C1108.25 1073.55 1115.99 1070.85 1123.51 1067.62C1127.45 1066.1 1131.14 1063.96 1134.42 1061.29L1137.39 962.086V962.091C1134.88 963.296 1132.32 964.374 1129.71 965.32C1123.11 967.967 1116.37 970.215 1109.51 972.051L1103.71 973.667V984.569C1103.78 985.375 1103.78 986.186 1103.71 986.992C1103.39 988.92 1102.66 990.756 1101.56 992.378C1100.4 993.986 1098.93 995.357 1097.25 996.413L1094.96 997.491L879.464 1081.08L876.772 1081.89H874.348C873.497 1082.02 872.634 1082.02 871.787 1081.89L869.227 1081.08L653.732 997.088L651.444 996.011C650.764 995.638 650.129 995.187 649.559 994.665H639.861L619.391 992.917C592.454 990.358 567.942 987.396 546.122 984.031C527.252 981.117 508.548 977.208 490.091 972.319C483.243 970.443 476.5 968.196 469.888 965.588C467.731 964.782 465.039 963.704 462.211 962.359L465.042 1061.16ZM732.12 999.239L860.878 1049.31V998.836C818.583 1000.32 774.544 1000.32 732.12 998.701V999.239ZM887.815 999.239V1048.77L1058.19 982.549H1054.02C1031.93 986.05 1007.96 988.876 980.747 991.435C953.539 993.99 920.407 996.684 887.814 998.03L887.815 999.239ZM671.512 968.952C731.178 972.585 797.981 973.663 860.878 971.914L860.883 789.252L671.517 715.485V927.357C710.576 929.916 753.673 931.932 815.494 931.932C822.934 931.932 828.963 937.961 828.963 945.392C828.963 952.828 822.934 958.853 815.494 958.853C753.808 958.853 710.575 956.833 671.517 954.279L671.512 968.952ZM887.815 789.252V970.972C919.465 969.762 949.905 967.874 978.188 965.319C1006.47 962.76 1028.29 959.934 1049.84 956.569C1057.78 955.359 1067.21 953.742 1076.78 951.722V715.486L887.815 789.252ZM642.286 966.933H645.114V952.128L626.257 950.782L568.073 946.475C560.638 945.993 555 939.574 555.482 932.138C555.964 924.707 562.387 919.073 569.827 919.554C590.568 920.899 609.425 922.38 627.743 923.725L644.578 924.935L644.574 899.629L621.811 901.514C594.875 903.937 571.708 906.763 550.295 910.128V910.133C532.452 912.762 514.774 916.447 497.364 921.17C491.419 922.752 485.575 924.684 479.858 926.959C476.074 928.387 472.422 930.144 468.945 932.208L467.196 933.014L468.945 934.092C472.396 936.208 476.052 937.965 479.858 939.341C485.579 941.589 491.428 943.522 497.364 945.13C514.774 949.849 532.452 953.534 550.295 956.167C571.576 959.532 595.01 962.359 621.811 964.918L641.878 966.535L642.286 966.933ZM1104.66 921.705V945.13C1110.09 943.623 1115.44 941.822 1120.68 939.745C1124.52 938.343 1128.22 936.586 1131.72 934.496C1132.31 934.202 1132.85 933.838 1133.34 933.418L1131.19 933.015C1127.68 931.003 1124.04 929.251 1120.28 927.765C1115 925.46 1109.61 923.436 1104.12 921.71L1104.66 921.705ZM448.88 527.44L460.327 906.091C463.694 904.342 466.925 902.993 469.621 901.919C476.237 899.33 482.98 897.086 489.824 895.189C508.269 890.286 526.976 886.421 545.85 883.613C567.803 880.112 591.78 877.15 619.119 874.726C626.796 873.92 634.473 873.381 642.286 872.706H644.575V695.832C644.579 692.563 645.776 689.404 647.942 686.95C648.503 686.298 649.139 685.71 649.827 685.198C650.945 684.37 652.168 683.69 653.466 683.182L868.961 599.188V599.184C872.078 597.983 875.537 597.983 878.659 599.184L1094.15 683.178V683.182C1095.45 683.69 1096.67 684.37 1097.79 685.198C1098.52 685.724 1099.15 686.359 1099.67 687.086C1101.86 689.422 1103.06 692.502 1103.04 695.701V894.92V894.915C1104.95 894.495 1106.92 894.495 1108.83 894.915C1115.68 896.795 1122.43 899.039 1129.03 901.646C1132.26 902.855 1135.4 904.248 1138.46 905.822L1149.91 526.498L1145.06 528.518L1145.06 528.513C1138.16 531.27 1131.1 533.609 1123.92 535.516C1104.65 540.765 1085.09 544.853 1065.33 547.763C1042.3 551.395 1017.11 554.493 988.426 557.052H988.422C862.212 567.551 735.362 567.551 609.152 557.052C580.597 554.493 555.278 551.399 532.247 547.763C512.496 544.827 492.934 540.739 473.66 535.516C466.904 533.763 460.254 531.651 453.725 529.188L448.88 527.44ZM695.082 695.834L874.347 765.561L1053.48 695.834L874.347 626.107L695.082 695.834ZM449.418 496.615L451.979 498.363C455.653 500.567 459.533 502.416 463.562 503.884C468.95 506.04 474.741 507.924 482.014 510.076H482.01C500.341 514.887 518.908 518.747 537.637 521.652C560.128 525.153 584.776 528.115 612.656 530.67C737.25 541.032 862.484 541.032 987.078 530.67C1015.09 528.111 1039.74 525.149 1062.23 521.652C1080.92 518.76 1099.44 514.895 1117.72 510.076C1123.98 508.358 1130.14 506.29 1136.17 503.884C1140.25 502.412 1144.17 500.567 1147.89 498.363L1150.32 496.615L1147.89 494.998C1144.17 492.746 1140.25 490.853 1136.17 489.346C1130.14 486.988 1123.98 484.964 1117.72 483.286C1099.47 478.339 1080.94 474.469 1062.23 471.714C1039.74 468.081 1015.23 465.119 987.078 462.56C862.484 452.329 737.25 452.329 612.656 462.56C584.64 465.119 560.128 468.081 537.637 471.714C518.885 474.483 500.309 478.348 482.01 483.286C475.758 484.986 469.598 487.006 463.561 489.346C459.523 490.848 455.643 492.741 451.978 494.998C451.066 495.441 450.207 495.98 449.418 496.615Z"></path>
</svg>
