<svg xmlns="http://www.w3.org/2000/svg" fill="none" viewBox="0 0 1600 1600" height="1600" width="1600">
<path fill="black" d="M290.405 1225.79L266.496 1142L242.587 1225.79C238.925 1238.62 232.536 1249.79 223.888 1258.79C215.423 1267.6 204.788 1274.33 192.404 1278.55L114 1304.5L191.68 1330.17C204.345 1334.34 215.244 1341.18 223.893 1350.19C232.542 1359.21 238.921 1370.36 242.593 1383.2L266.501 1467L290.41 1383.2C294.066 1370.38 300.445 1359.22 309.109 1350.2C317.773 1341.18 328.659 1334.35 341.331 1330.16L419 1304.5L341.331 1278.82C328.66 1274.65 317.774 1267.81 309.109 1258.8C300.445 1249.78 294.065 1238.62 290.41 1225.79L290.405 1225.79Z"></path>
<path fill="black" d="M1145.22 225.38L1132 179L1118.78 225.38C1116.26 234.232 1111.83 241.964 1105.84 248.204C1099.85 254.453 1092.32 259.205 1083.59 262.079L1040 276.5L1083.59 290.921C1092.31 293.798 1099.85 298.541 1105.84 304.79C1111.83 311.032 1116.26 318.771 1118.78 327.629L1132 374L1145.22 327.629C1147.73 318.768 1152.17 311.038 1158.15 304.796C1164.15 298.538 1171.68 293.811 1180.41 290.921L1224 276.5L1180.41 262.079C1171.69 259.202 1164.15 254.453 1158.15 248.21C1152.16 241.953 1147.74 234.223 1145.22 225.377V225.38Z"></path>
<path fill="black" d="M1054.22 1232.38L1041 1186L1027.78 1232.38C1025.26 1241.23 1020.83 1248.96 1014.84 1255.2C1008.85 1261.45 1001.32 1266.2 992.586 1269.08L949 1283.5L992.586 1297.92C1001.31 1300.8 1008.85 1305.54 1014.84 1311.79C1020.83 1318.03 1025.26 1325.77 1027.78 1334.63L1041 1381L1054.22 1334.63C1056.73 1325.77 1061.17 1318.04 1067.15 1311.8C1073.15 1305.54 1080.68 1300.81 1089.41 1297.92L1133 1283.5L1089.41 1269.08C1080.69 1266.2 1073.15 1261.45 1067.15 1255.21C1061.16 1248.95 1056.74 1241.22 1054.22 1232.38V1232.38Z"></path>
<path fill="black" d="M320.218 236.38L306.995 190L293.782 236.38C291.257 245.232 286.834 252.964 280.839 259.204C274.854 265.453 267.321 270.205 258.586 273.079L215 287.5L258.586 301.921C267.306 304.798 274.846 309.541 280.839 315.79C286.834 322.032 291.257 329.771 293.782 338.629L306.995 385L320.218 338.629C322.734 329.768 327.166 322.038 333.152 315.796C339.154 309.538 346.679 304.811 355.414 301.921L399 287.5L355.414 273.079C346.688 270.202 339.146 265.453 333.152 259.21C327.157 252.953 322.743 245.223 320.218 236.377V236.38Z"></path>
<path fill="black" d="M742.027 830.494C820.417 687.311 843.136 381.254 716.979 352.576L552.175 314.136C443.221 297.981 367.419 457.31 334.944 589.018C310.437 706.188 299.735 847.84 378.871 917.765L378.868 917.768C364.613 933.13 356.423 953.148 355.829 974.098V1141.44C363.981 1336.51 975.175 1336.66 983.382 1141.43L983.378 974.095C983.382 903.143 881.889 845.506 742.029 830.494H742.027ZM755.84 687.283C744.689 735.986 727.438 783.091 704.49 827.467C653.662 824.784 602.694 827.953 552.59 836.918C586.381 781.223 610.845 720.379 625.01 656.795C650.141 540.08 651.603 441.394 611.646 363.838L709.023 386.554C761.596 398.895 793.756 525.439 755.837 687.291L755.84 687.283ZM368.903 596.947C396.051 483.797 461.778 341.208 544.153 348.088H544.156C564.109 355.366 579.717 371.25 586.644 391.329L354.978 781.701C349.233 719.772 353.941 657.318 368.9 596.955L368.903 596.947ZM365.302 832.689L600.367 436.599C626.916 553.147 578.346 758.642 501.142 849.122V849.125C467.021 858.394 434.723 873.394 405.622 893.48C384.973 879.05 370.564 857.325 365.31 832.69L365.302 832.689ZM442.213 911.238L658.821 979.682L875.429 1048.13C810.262 1075.22 740.146 1088.37 669.59 1086.75C480.415 1087.03 299.735 997.313 442.213 911.236V911.238ZM669.59 1254.1C505.231 1254.1 390.706 1194.73 390.706 1141.45V1042.56C497.562 1147 841.747 1146.92 948.482 1042.55V1141.45C948.482 1194.73 833.94 1254.1 669.59 1254.1V1254.1ZM916.119 1024.39L489.42 889.551C547.462 870.074 608.382 860.568 669.599 861.439C847.03 860.866 1021.3 941.145 916.129 1024.39L916.119 1024.39Z"></path>
<path fill="black" d="M1239.38 617.321C1162.2 545.735 923.524 498.173 895.218 594.405L866.699 693.843C851.333 747.471 922.641 811.672 1032.57 843.209C1100.74 862.693 1224.55 877.479 1252.38 804.438L1280.89 705C1288.85 677.294 1274.1 646.153 1239.38 617.32L1239.38 617.321ZM962.116 580.57L1178.81 724.199C1142.25 725.446 1105.73 720.728 1070.69 710.233C969.664 681.381 875.443 605.438 962.116 580.576V580.57ZM1166.04 822.198C1084.97 839.474 890.037 768.291 900.231 703.45L913.173 658.322C940.328 692.461 993.325 724.328 1061.09 743.765C1120.45 760.052 1178.99 767.102 1231.86 749.473L1218.86 794.811C1215.07 807.997 1195.33 818.234 1166.05 822.194L1166.04 822.198ZM1227.03 714.293L1017.02 575.102C1079.34 575.167 1172.39 605.295 1217.1 644.168C1248.99 672.027 1262.85 697.691 1227.03 714.297L1227.03 714.293Z"></path>
</svg>
